<svg width="225" height="356" viewBox="0 0 225 356" fill="none" xmlns="http://www.w3.org/2000/svg">
<path d="M75.9317 296.137V295.137H74.9317H1V213.83H31.5428C51.6291 213.83 67.9273 197.686 67.9273 177.753C67.9273 157.82 51.6291 141.676 31.5428 141.676H1V71.1546H74.9317H75.9317V70.1546V35.0773C75.9317 16.2651 91.3179 1 110.316 1C129.314 1 144.701 16.2651 144.701 35.0773V70.1546V71.1546H145.701H224V141.676H187.47C167.384 141.676 151.086 157.82 151.086 177.753C151.086 197.686 167.384 213.83 187.47 213.83H224V295.137H145.701H144.701V296.137V320.38C144.701 339.192 129.314 354.457 110.316 354.457C91.3179 354.457 75.9317 339.192 75.9317 320.38V296.137Z" stroke="#5A5974" stroke-width="2"/>
</svg>
