<svg width="226" height="356" viewBox="0 0 226 356" fill="none" xmlns="http://www.w3.org/2000/svg">
<path d="M140.894 71.2618H225V295.59H140.387H139.387V296.59V320.869C139.387 339.708 123.934 355 104.846 355C85.7579 355 70.304 339.708 70.304 320.869V296.59V295.59H69.304H1V214.156H25.8447C46.0151 214.156 62.3864 197.99 62.3864 178.025C62.3864 158.059 46.0151 141.894 25.8447 141.894H1V71.2618H69.8107H70.8107V70.2618V35.1309C70.8107 16.2918 86.2645 1 105.352 1C124.44 1 139.894 16.2918 139.894 35.1309V70.2618V71.2618H140.894Z" stroke="#5A5974" stroke-width="2"/>
</svg>
