<svg width="360" height="226" viewBox="0 0 360 226" fill="none" xmlns="http://www.w3.org/2000/svg">
<path d="M73.9142 142.676V141.676H72.9142H35.3845C16.3862 141.676 1 126.411 1 107.599C1 88.7863 16.3862 73.5212 35.3845 73.5212H72.9142H73.9142V72.5212V1H143.879V30.2968C143.879 50.2299 160.177 66.374 180.263 66.374C200.35 66.374 216.648 50.2299 216.648 30.2968V1H296.914V72.5212V73.5212H297.914H323.645C342.643 73.5212 358.029 88.7863 358.029 107.599C358.029 126.411 342.643 141.676 323.645 141.676H297.914H296.914V142.676V224.982H216.648V184.477C216.648 164.544 200.35 148.4 180.263 148.4C160.177 148.4 143.879 164.544 143.879 184.477V224.982H73.9142V142.676Z" stroke="#5A5974" stroke-width="2"/>
</svg>
