<svg width="361" height="226" viewBox="0 0 361 226" fill="none" xmlns="http://www.w3.org/2000/svg">
<path d="M71.7706 78.4414V1H294.771V78.4414V79.4414H295.771H325.055C344.053 79.4414 359.44 94.7065 359.44 113.519C359.44 132.331 344.053 147.596 325.055 147.596H295.771H294.771V148.596V224.983H217.471V190.905C217.471 170.972 201.173 154.828 181.087 154.828C161 154.828 144.702 170.972 144.702 190.905V224.983H71.7706V148.596V147.596H70.7706H35.3844C16.3862 147.596 1 132.331 1 113.519C1 94.7065 16.3862 79.4414 35.3844 79.4414H70.7706H71.7706V78.4414Z" stroke="#5A5974" stroke-width="2"/>
</svg>
