<svg width="361" height="226" viewBox="0 0 361 226" fill="none" xmlns="http://www.w3.org/2000/svg">
<path d="M294.771 136.545V224.983H71.7706V136.545V135.545H70.7706H35.3844C16.3862 135.545 1 120.28 1 101.468C1 82.6555 16.3862 67.3904 35.3844 67.3904H70.7706H71.7706V66.3904V1H144.702V24.2426C144.702 44.1757 161 60.3198 181.087 60.3198C201.173 60.3198 217.471 44.1757 217.471 24.2426V1H294.771V66.3904V67.3904H295.771H325.055C344.053 67.3904 359.44 82.6555 359.44 101.468C359.44 120.28 344.053 135.545 325.055 135.545H295.771H294.771V136.545Z" stroke="#5A5974" stroke-width="2"/>
</svg>
