<svg width="361" height="227" viewBox="0 0 361 227" fill="none" xmlns="http://www.w3.org/2000/svg">
<path d="M72.1378 78.9375V1.49609H295.138V78.9375V79.9375H296.138H325.422C344.421 79.9375 359.807 95.2026 359.807 114.015C359.807 132.827 344.421 148.092 325.422 148.092H296.138H295.138V149.092V225.479H217.838V191.402C217.838 171.468 201.54 155.324 181.454 155.324C161.368 155.324 145.069 171.468 145.069 191.402V225.479H72.1378V149.092V148.092H71.1378H35.7516C16.7534 148.092 1.36719 132.827 1.36719 114.015C1.36719 95.2026 16.7534 79.9375 35.7516 79.9375H71.1378H72.1378V78.9375Z" stroke="#5A5974" stroke-width="2"/>
</svg>
