<svg width="1920" height="1116" viewBox="0 0 1920 1116" fill="none" xmlns="http://www.w3.org/2000/svg">
<path opacity="0.7" d="M-69.9453 -2.54712H723.951L782.9 322.996V562.706L-69.9453 284.246V-2.54712Z" fill="url(#paint0_linear)"/>
<path opacity="0.7" d="M-22.542 323.247L782.667 587.529L790.775 1238.76H-49.9453L-22.542 323.247Z" fill="url(#paint1_linear)"/>
<path opacity="0.7" d="M1576.69 -36.054H1997.08L1948.3 1258.09H1497.74L1243.4 685.614L1084.29 479.35L1033.07 379.435L938.453 279.037L1152.48 -36.054H1576.69Z" fill="url(#paint2_linear)"/>
<path opacity="0.7" d="M791.445 320.88L921.786 283.552L1021.18 388.221L1072.53 497.88L1227.47 699.877L1032.93 631.519L791.445 542.294V320.88Z" fill="url(#paint3_linear)"/>
<g filter="url(#filter0_i)">
<path d="M797.059 558.021L1232.33 722.454L1463.56 1258.55L797.059 1258.55L797.059 558.021Z" fill="#18172A"/>
</g>
<mask id="mask0" style="mask-type:alpha" maskUnits="userSpaceOnUse" x="545" y="386" width="750" height="303">
<path d="M683.178 685.778V630.978H559.578L545.978 596.178L631.978 388.578H711.178L638.378 565.378H683.178V521.378L697.978 482.978H760.778V565.378H784.778V618.978L760.778 630.978V685.778H683.178ZM888.684 688.178C861.218 688.178 840.818 681.111 827.484 666.978C814.151 652.578 807.484 632.711 807.484 607.378V470.978C807.484 443.511 814.551 422.578 828.684 408.178C842.818 393.511 862.951 386.178 889.084 386.178H953.884C979.218 386.178 998.551 393.511 1011.88 408.178C1025.22 422.578 1031.88 443.511 1031.88 470.978V607.378C1031.88 632.445 1025.08 652.178 1011.48 666.578C998.151 680.978 978.818 688.178 953.484 688.178H888.684ZM907.884 618.578H931.884C939.084 618.578 944.551 616.845 948.284 613.378C952.284 609.645 954.284 603.645 954.284 595.378V478.978C954.284 469.645 952.418 463.511 948.684 460.578C944.951 457.378 940.418 455.778 935.084 455.778H905.084C891.751 455.778 885.084 463.511 885.084 478.978V594.978C885.084 603.511 886.951 609.645 890.684 613.378C894.418 616.845 900.151 618.578 907.884 618.578ZM1193.33 685.778V630.978H1069.73L1056.13 596.178L1142.13 388.578H1221.33L1148.53 565.378H1193.33V521.378L1208.13 482.978H1270.93V565.378H1294.93V618.978L1270.93 630.978V685.778H1193.33Z" fill="white"/>
</mask>
<g mask="url(#mask0)">
<path d="M-69.9453 57.4529H723.951L800.969 350.809L795.983 567.098L-69.9453 284.246V57.4529Z" fill="#E9ECF1"/>
</g>
<mask id="mask1" style="mask-type:alpha" maskUnits="userSpaceOnUse" x="524" y="386" width="750" height="303">
<path d="M662.178 685.778V630.978H538.578L524.978 596.178L610.978 388.578H690.178L617.378 565.378H662.178V521.378L676.978 482.978H739.778V565.378H763.778V618.978L739.778 630.978V685.778H662.178ZM867.684 688.178C840.218 688.178 819.818 681.111 806.484 666.978C793.151 652.578 786.484 632.711 786.484 607.378V470.978C786.484 443.511 793.551 422.578 807.684 408.178C821.818 393.511 841.951 386.178 868.084 386.178H932.884C958.218 386.178 977.551 393.511 990.884 408.178C1004.22 422.578 1010.88 443.511 1010.88 470.978V607.378C1010.88 632.445 1004.08 652.178 990.484 666.578C977.151 680.978 957.818 688.178 932.484 688.178H867.684ZM886.884 618.578H910.884C918.084 618.578 923.551 616.845 927.284 613.378C931.284 609.645 933.284 603.645 933.284 595.378V478.978C933.284 469.645 931.418 463.511 927.684 460.578C923.951 457.378 919.418 455.778 914.084 455.778H884.084C870.751 455.778 864.084 463.511 864.084 478.978V594.978C864.084 603.511 865.951 609.645 869.684 613.378C873.418 616.845 879.151 618.578 886.884 618.578ZM1172.33 685.778V630.978H1048.73L1035.13 596.178L1121.13 388.578H1200.33L1127.53 565.378H1172.33V521.378L1187.13 482.978H1249.93V565.378H1273.93V618.978L1249.93 630.978V685.778H1172.33Z" fill="white"/>
</mask>
<g mask="url(#mask1)">
<path d="M-70.944 303.396L779.65 586.697L616.575 1028.76H-70.9453L-70.944 303.396Z" fill="#E9ECF1"/>
</g>
<mask id="mask2" style="mask-type:alpha" maskUnits="userSpaceOnUse" x="535" y="366" width="750" height="303">
<path d="M673.178 665.778V610.978H549.578L535.978 576.178L621.978 368.578H701.178L628.378 545.378H673.178V501.378L687.978 462.978H750.778V545.378H774.778V598.978L750.778 610.978V665.778H673.178ZM878.684 668.178C851.218 668.178 830.818 661.111 817.484 646.978C804.151 632.578 797.484 612.711 797.484 587.378V450.978C797.484 423.511 804.551 402.578 818.684 388.178C832.818 373.511 852.951 366.178 879.084 366.178H943.884C969.218 366.178 988.551 373.511 1001.88 388.178C1015.22 402.578 1021.88 423.511 1021.88 450.978V587.378C1021.88 612.445 1015.08 632.178 1001.48 646.578C988.151 660.978 968.818 668.178 943.484 668.178H878.684ZM897.884 598.578H921.884C929.084 598.578 934.551 596.845 938.284 593.378C942.284 589.645 944.284 583.645 944.284 575.378V458.978C944.284 449.645 942.418 443.511 938.684 440.578C934.951 437.378 930.418 435.778 925.084 435.778H895.084C881.751 435.778 875.084 443.511 875.084 458.978V574.978C875.084 583.511 876.951 589.645 880.684 593.378C884.418 596.845 890.151 598.578 897.884 598.578ZM1183.33 665.778V610.978H1059.73L1046.13 576.178L1132.13 368.578H1211.33L1138.53 545.378H1183.33V501.378L1198.13 462.978H1260.93V545.378H1284.93V598.978L1260.93 610.978V665.778H1183.33Z" fill="white"/>
</mask>
<g mask="url(#mask2)">
<path d="M1519.97 63.3888H2029.27V1024.39H1505.74L978.02 342.203L1083.17 63.3888H1519.97Z" fill="#E9ECF1"/>
</g>
<mask id="mask3" style="mask-type:alpha" maskUnits="userSpaceOnUse" x="545" y="386" width="750" height="303">
<path d="M683.178 685.778V630.978H559.578L545.978 596.178L631.978 388.578H711.178L638.378 565.378H683.178V521.378L697.978 482.978H760.778V565.378H784.778V618.978L760.778 630.978V685.778H683.178ZM888.684 688.178C861.218 688.178 840.818 681.111 827.484 666.978C814.151 652.578 807.484 632.711 807.484 607.378V470.978C807.484 443.511 814.551 422.578 828.684 408.178C842.818 393.511 862.951 386.178 889.084 386.178H953.884C979.218 386.178 998.551 393.511 1011.88 408.178C1025.22 422.578 1031.88 443.511 1031.88 470.978V607.378C1031.88 632.445 1025.08 652.178 1011.48 666.578C998.151 680.978 978.818 688.178 953.484 688.178H888.684ZM907.884 618.578H931.884C939.084 618.578 944.551 616.845 948.284 613.378C952.284 609.645 954.284 603.645 954.284 595.378V478.978C954.284 469.645 952.418 463.511 948.684 460.578C944.951 457.378 940.418 455.778 935.084 455.778H905.084C891.751 455.778 885.084 463.511 885.084 478.978V594.978C885.084 603.511 886.951 609.645 890.684 613.378C894.418 616.845 900.151 618.578 907.884 618.578ZM1193.33 685.778V630.978H1069.73L1056.13 596.178L1142.13 388.578H1221.33L1148.53 565.378H1193.33V521.378L1208.13 482.978H1270.93V565.378H1294.93V618.978L1270.93 630.978V685.778H1193.33Z" fill="white"/>
</mask>
<g mask="url(#mask3)">
<path d="M859.531 325.999L1002.83 388.35L1068.07 492.144L1227.25 699.853L1024.25 628.693L768.75 531.925L859.531 325.999Z" fill="#E9ECF1"/>
</g>
<mask id="mask4" style="mask-type:alpha" maskUnits="userSpaceOnUse" x="529" y="386" width="750" height="303">
<path d="M666.44 685.778V630.978H542.84L529.24 596.178L615.24 388.578H694.44L621.64 565.378H666.44V521.378L681.24 482.978H744.04V565.378H768.04V618.978L744.04 630.978V685.778H666.44ZM871.946 688.178C844.479 688.178 824.079 681.111 810.746 666.978C797.413 652.578 790.746 632.711 790.746 607.378V470.978C790.746 443.511 797.813 422.578 811.946 408.178C826.079 393.511 846.213 386.178 872.346 386.178H937.146C962.479 386.178 981.813 393.511 995.146 408.178C1008.48 422.578 1015.15 443.511 1015.15 470.978V607.378C1015.15 632.445 1008.35 652.178 994.746 666.578C981.413 680.978 962.079 688.178 936.746 688.178H871.946ZM891.146 618.578H915.146C922.346 618.578 927.813 616.845 931.546 613.378C935.546 609.645 937.546 603.645 937.546 595.378V478.978C937.546 469.645 935.679 463.511 931.946 460.578C928.213 457.378 923.679 455.778 918.346 455.778H888.346C875.013 455.778 868.346 463.511 868.346 478.978V594.978C868.346 603.511 870.213 609.645 873.946 613.378C877.679 616.845 883.413 618.578 891.146 618.578ZM1176.6 685.778V630.978H1053L1039.4 596.178L1125.4 388.578H1204.6L1131.8 565.378H1176.6V521.378L1191.4 482.978H1254.2V565.378H1278.2V618.978L1254.2 630.978V685.778H1176.6Z" fill="white"/>
</mask>
<g mask="url(#mask4)">
<path d="M785.182 560.157L1243.37 734.61L1064.97 1194.97L733.891 850.873L785.182 560.157Z" fill="#E9ECF1"/>
</g>
<g filter="url(#filter1_i)">
<path d="M734.773 57.4529H1090.5L922.391 276.127L788.01 313.85L734.773 57.4529Z" fill="#18172A"/>
</g>
<defs>
<filter id="filter0_i" x="797.059" y="558.021" width="666.5" height="704.533" filterUnits="userSpaceOnUse" color-interpolation-filters="sRGB">
<feFlood flood-opacity="0" result="BackgroundImageFix"/>
<feBlend mode="normal" in="SourceGraphic" in2="BackgroundImageFix" result="shape"/>
<feColorMatrix in="SourceAlpha" type="matrix" values="0 0 0 0 0 0 0 0 0 0 0 0 0 0 0 0 0 0 127 0" result="hardAlpha"/>
<feOffset dy="4"/>
<feGaussianBlur stdDeviation="50"/>
<feComposite in2="hardAlpha" operator="arithmetic" k2="-1" k3="1"/>
<feColorMatrix type="matrix" values="0 0 0 0 0 0 0 0 0 0 0 0 0 0 0 0 0 0 1 0"/>
<feBlend mode="normal" in2="shape" result="effect1_innerShadow"/>
</filter>
<filter id="filter1_i" x="734.773" y="57.4529" width="355.722" height="260.397" filterUnits="userSpaceOnUse" color-interpolation-filters="sRGB">
<feFlood flood-opacity="0" result="BackgroundImageFix"/>
<feBlend mode="normal" in="SourceGraphic" in2="BackgroundImageFix" result="shape"/>
<feColorMatrix in="SourceAlpha" type="matrix" values="0 0 0 0 0 0 0 0 0 0 0 0 0 0 0 0 0 0 127 0" result="hardAlpha"/>
<feOffset dy="4"/>
<feGaussianBlur stdDeviation="50"/>
<feComposite in2="hardAlpha" operator="arithmetic" k2="-1" k3="1"/>
<feColorMatrix type="matrix" values="0 0 0 0 0 0 0 0 0 0 0 0 0 0 0 0 0 0 1 0"/>
<feBlend mode="normal" in2="shape" result="effect1_innerShadow"/>
</filter>
<linearGradient id="paint0_linear" x1="20.6581" y1="57.453" x2="782.9" y2="562.707" gradientUnits="userSpaceOnUse">
<stop stop-color="#151424"/>
<stop offset="1" stop-color="#2B2A46"/>
</linearGradient>
<linearGradient id="paint1_linear" x1="28.9868" y1="1028.76" x2="604.428" y2="365.306" gradientUnits="userSpaceOnUse">
<stop stop-color="#151424"/>
<stop offset="1" stop-color="#2B2A46"/>
</linearGradient>
<linearGradient id="paint2_linear" x1="1913.33" y1="72.3623" x2="1220.63" y2="585.22" gradientUnits="userSpaceOnUse">
<stop stop-color="#151424"/>
<stop offset="1" stop-color="#2B2A46"/>
</linearGradient>
<linearGradient id="paint3_linear" x1="467.271" y1="39.3467" x2="1029.08" y2="213.997" gradientUnits="userSpaceOnUse">
<stop stop-color="#151424"/>
<stop offset="1" stop-color="#2B2A46"/>
</linearGradient>
</defs>
</svg>
