<svg width="768" height="600" viewBox="0 0 320 1016" fill="none" xmlns="http://www.w3.org/2000/svg">
<path opacity="0.7" d="M-240.422 -168.673H43.9103L113.568 207.729V293.581L-191.876 193.851L-240.422 -168.673Z" fill="url(#paint0_linear)"/>
<path opacity="0.7" d="M-174.9 207.819L113.483 302.471L121.387 1125.71H-179.715L-174.9 207.819Z" fill="url(#paint1_linear)"/>
<path opacity="0.7" d="M466.316 -132.259H616.88L530.95 542.632H369.585L278.495 337.6L221.508 263.727L203.165 227.943L169.277 191.986L314.388 -132.259H466.316Z" fill="url(#paint2_linear)"/>
<g filter="url(#filter0_i)">
<path d="M118.641 291.903L274.531 350.794L316.636 437.806L357.346 1102.8L118.641 1102.8L118.641 291.903Z" fill="#18172A"/>
</g>
<mask id="mask0" style="mask-type:alpha" maskUnits="userSpaceOnUse" x="22" y="229" width="269" height="109">
<path d="M71.8572 337.042V317.415H27.5902L22.7194 304.951L53.5201 230.6H81.8854L55.8122 293.921H71.8572V278.162L77.1578 264.409H99.6495V293.921H108.245V313.117L99.6495 317.415V337.042H71.8572ZM145.459 337.901C135.622 337.901 128.315 335.37 123.54 330.308C118.765 325.151 116.377 318.036 116.377 308.963V260.111C116.377 250.274 118.908 242.777 123.97 237.62C129.032 232.367 136.242 229.74 145.602 229.74H168.81C177.883 229.74 184.807 232.367 189.583 237.62C194.358 242.777 196.746 250.274 196.746 260.111V308.963C196.746 317.94 194.31 325.008 189.439 330.165C184.664 335.322 177.74 337.901 168.667 337.901H145.459ZM152.335 312.974H160.931C163.509 312.974 165.467 312.353 166.804 311.112C168.237 309.775 168.953 307.626 168.953 304.665V262.977C168.953 259.634 168.285 257.437 166.948 256.387C165.611 255.241 163.987 254.668 162.077 254.668H151.332C146.557 254.668 144.169 257.437 144.169 262.977V304.522C144.169 307.578 144.838 309.775 146.175 311.112C147.512 312.353 149.566 312.974 152.335 312.974ZM254.569 337.042V317.415H210.301L205.431 304.951L236.231 230.6H264.597L238.523 293.921H254.569V278.162L259.869 264.409H282.361V293.921H290.956V313.117L282.361 317.415V337.042H254.569Z" fill="white"/>
</mask>
<g mask="url(#mask0)">
<path opacity="0.7" d="M116.629 206.971L163.31 193.602L198.907 231.089L217.298 270.363L272.792 342.708L203.117 318.226L116.629 286.27V206.971Z" fill="url(#paint3_linear)"/>
<mask id="mask1" style="mask-type:alpha" maskUnits="userSpaceOnUse" x="28" y="229" width="269" height="109">
<path d="M77.8494 337.042V317.415H33.5824L28.7116 304.951L59.5123 230.6H87.8776L61.8044 293.921H77.8494V278.162L83.15 264.409H105.642V293.921H114.237V313.117L105.642 317.415V337.042H77.8494ZM151.451 337.901C141.614 337.901 134.308 335.37 129.532 330.308C124.757 325.151 122.369 318.036 122.369 308.963V260.111C122.369 250.274 124.9 242.777 129.962 237.62C135.024 232.367 142.235 229.74 151.594 229.74H174.802C183.875 229.74 190.8 232.367 195.575 237.62C200.35 242.777 202.738 250.274 202.738 260.111V308.963C202.738 317.94 200.302 325.008 195.432 330.165C190.656 335.322 183.732 337.901 174.659 337.901H151.451ZM158.327 312.974H166.923C169.502 312.974 171.46 312.353 172.797 311.112C174.229 309.775 174.946 307.626 174.946 304.665V262.977C174.946 259.634 174.277 257.437 172.94 256.387C171.603 255.241 169.979 254.668 168.069 254.668H157.325C152.549 254.668 150.162 257.437 150.162 262.977V304.522C150.162 307.578 150.83 309.775 152.167 311.112C153.504 312.353 155.558 312.974 158.327 312.974ZM260.561 337.042V317.415H216.294L211.423 304.951L242.224 230.6H270.589L244.516 293.921H260.561V278.162L265.861 264.409H288.353V293.921H296.949V313.117L288.353 317.415V337.042H260.561Z" fill="white"/>
</mask>
<g mask="url(#mask1)">
<path d="M-191.883 112.625H92.4493L120.033 217.69L118.247 295.154L-191.883 193.851V112.625Z" fill="#E9ECF1"/>
</g>
<mask id="mask2" style="mask-type:alpha" maskUnits="userSpaceOnUse" x="21" y="229" width="269" height="109">
<path d="M70.3338 337.041V317.415H26.0667L21.1959 304.951L51.9966 230.6H80.3619L54.2888 293.92H70.3338V278.162L75.6344 264.409H98.1261V293.92H106.722V313.117L98.1261 317.415V337.041H70.3338ZM143.935 337.901C134.098 337.901 126.792 335.37 122.017 330.308C117.241 325.151 114.854 318.036 114.854 308.963V260.111C114.854 250.274 117.385 242.777 122.447 237.62C127.508 232.367 134.719 229.74 144.079 229.74H167.287C176.36 229.74 183.284 232.367 188.059 237.62C192.834 242.777 195.222 250.274 195.222 260.111V308.963C195.222 317.94 192.787 325.008 187.916 330.165C183.141 335.322 176.216 337.901 167.143 337.901H143.935ZM150.812 312.974H159.407C161.986 312.974 163.944 312.353 165.281 311.111C166.714 309.774 167.43 307.626 167.43 304.665V262.976C167.43 259.634 166.761 257.437 165.424 256.387C164.087 255.24 162.464 254.667 160.553 254.667H149.809C145.034 254.667 142.646 257.437 142.646 262.976V304.522C142.646 307.578 143.315 309.774 144.652 311.111C145.989 312.353 148.042 312.974 150.812 312.974ZM253.045 337.041V317.415H208.778L203.907 304.951L234.708 230.6H263.073L237 293.92H253.045V278.162L258.346 264.409H280.837V293.92H289.433V313.117L280.837 317.415V337.041H253.045Z" fill="white"/>
</mask>
<g mask="url(#mask2)">
<path d="M-192.234 200.709L112.405 302.173L53.9993 460.497H-192.234L-192.234 200.709Z" fill="#E9ECF1"/>
</g>
<mask id="mask3" style="mask-type:alpha" maskUnits="userSpaceOnUse" x="25" y="222" width="269" height="109">
<path d="M74.2752 329.878V310.252H30.0082L25.1373 297.788L55.9381 223.437H84.3033L58.2302 286.757H74.2752V270.999L79.5758 257.246H102.067V286.757H110.663V305.954L102.067 310.252V329.878H74.2752ZM147.877 330.738C138.04 330.738 130.733 328.207 125.958 323.145C121.183 317.988 118.795 310.873 118.795 301.8V252.948C118.795 243.111 121.326 235.614 126.388 230.457C131.45 225.204 138.66 222.577 148.02 222.577H171.228C180.301 222.577 187.225 225.204 192.001 230.457C196.776 235.614 199.164 243.111 199.164 252.948V301.8C199.164 310.777 196.728 317.845 191.857 323.002C187.082 328.159 180.158 330.738 171.085 330.738H147.877ZM154.753 305.811H163.349C165.927 305.811 167.885 305.19 169.222 303.949C170.655 302.611 171.371 300.463 171.371 297.502V255.813C171.371 252.471 170.703 250.274 169.366 249.224C168.029 248.077 166.405 247.504 164.495 247.504H153.75C148.975 247.504 146.587 250.274 146.587 255.813V297.359C146.587 300.415 147.256 302.611 148.593 303.949C149.93 305.19 151.984 305.811 154.753 305.811ZM256.986 329.878V310.252H212.719L207.849 297.788L238.649 223.437H267.015L240.941 286.757H256.986V270.999L262.287 257.246H284.779V286.757H293.374V305.954L284.779 310.252V329.878H256.986Z" fill="white"/>
</mask>
<g mask="url(#mask3)">
<path d="M377.546 114.751H559.951V458.931H372.452L183.449 214.608L221.109 114.751H377.546Z" fill="#E9ECF1"/>
</g>
<mask id="mask4" style="mask-type:alpha" maskUnits="userSpaceOnUse" x="28" y="229" width="269" height="109">
<path d="M77.8494 337.042V317.415H33.5824L28.7116 304.951L59.5123 230.6H87.8776L61.8044 293.921H77.8494V278.162L83.15 264.409H105.642V293.921H114.237V313.117L105.642 317.415V337.042H77.8494ZM151.451 337.901C141.614 337.901 134.308 335.37 129.532 330.308C124.757 325.151 122.369 318.036 122.369 308.963V260.111C122.369 250.274 124.9 242.777 129.962 237.62C135.024 232.367 142.235 229.74 151.594 229.74H174.802C183.875 229.74 190.8 232.367 195.575 237.62C200.35 242.777 202.738 250.274 202.738 260.111V308.963C202.738 317.94 200.302 325.008 195.432 330.165C190.656 335.322 183.732 337.901 174.659 337.901H151.451ZM158.327 312.974H166.923C169.502 312.974 171.46 312.353 172.797 311.112C174.229 309.775 174.946 307.626 174.946 304.665V262.977C174.946 259.634 174.277 257.437 172.94 256.387C171.603 255.241 169.979 254.668 168.069 254.668H157.325C152.549 254.668 150.162 257.437 150.162 262.977V304.522C150.162 307.578 150.83 309.775 152.167 311.112C153.504 312.353 155.558 312.974 158.327 312.974ZM260.561 337.042V317.415H216.294L211.423 304.951L242.224 230.6H270.589L244.516 293.921H260.561V278.162L265.861 264.409H288.353V293.921H296.949V313.117L288.353 317.415V337.042H260.561Z" fill="white"/>
</mask>
<g mask="url(#mask4)">
<path d="M141.009 208.805L192.33 231.136L215.696 268.309L272.708 342.7L200.002 317.214L108.496 282.557L141.009 208.805Z" fill="#E9ECF1"/>
</g>
<path d="M114.384 292.668L278.481 355.148L214.589 520.023L96.014 396.787L114.384 292.668Z" fill="#E9ECF1"/>
</g>
<defs>
<filter id="filter0_i" x="118.641" y="291.903" width="238.706" height="812.327" filterUnits="userSpaceOnUse" color-interpolation-filters="sRGB">
<feFlood flood-opacity="0" result="BackgroundImageFix"/>
<feBlend mode="normal" in="SourceGraphic" in2="BackgroundImageFix" result="shape"/>
<feColorMatrix in="SourceAlpha" type="matrix" values="0 0 0 0 0 0 0 0 0 0 0 0 0 0 0 0 0 0 127 0" result="hardAlpha"/>
<feOffset dy="1.43259"/>
<feGaussianBlur stdDeviation="17.9074"/>
<feComposite in2="hardAlpha" operator="arithmetic" k2="-1" k3="1"/>
<feColorMatrix type="matrix" values="0 0 0 0 0 0 0 0 0 0 0 0 0 0 0 0 0 0 1 0"/>
<feBlend mode="normal" in2="shape" result="effect1_innerShadow"/>
</filter>
<linearGradient id="paint0_linear" x1="-159.426" y1="112.626" x2="113.569" y2="293.581" gradientUnits="userSpaceOnUse">
<stop stop-color="#151424"/>
<stop offset="1" stop-color="#2B2A46"/>
</linearGradient>
<linearGradient id="paint1_linear" x1="-156.446" y1="460.497" x2="49.6475" y2="222.882" gradientUnits="userSpaceOnUse">
<stop stop-color="#151424"/>
<stop offset="1" stop-color="#2B2A46"/>
</linearGradient>
<linearGradient id="paint2_linear" x1="518.429" y1="117.965" x2="270.338" y2="301.644" gradientUnits="userSpaceOnUse">
<stop stop-color="#151424"/>
<stop offset="1" stop-color="#2B2A46"/>
</linearGradient>
<linearGradient id="paint3_linear" x1="0.526707" y1="106.141" x2="201.736" y2="168.691" gradientUnits="userSpaceOnUse">
<stop stop-color="#151424"/>
<stop offset="1" stop-color="#2B2A46"/>
</linearGradient>
</defs>
</svg>
