<svg width="1000" height="1128" viewBox="0 0 1000 1128" fill="none" xmlns="http://www.w3.org/2000/svg">
<path opacity="0.7" d="M-422.375 -56.7764H280.272L362.446 341.349V553.508L-392.375 307.053L-422.375 -56.7764Z" fill="url(#paint0_linear)"/>
<path opacity="0.7" d="M-350.418 341.571L362.241 575.477L369.417 1151.86H-374.672L-350.418 341.571Z" fill="url(#paint1_linear)"/>
<path opacity="0.7" d="M1085.9 -4.59253H1457.97L1393.89 1168.97H995.125L770.021 662.289L629.195 479.732L583.864 391.302L500.121 302.443L710.449 -4.59253H1085.9Z" fill="url(#paint2_linear)"/>
<g filter="url(#filter0_i)">
<path d="M374.977 549.361L760.217 694.894L964.871 1169.38L374.977 1169.38L374.977 549.361Z" fill="#18172A"/>
</g>
<mask id="mask0" style="mask-type:alpha" maskUnits="userSpaceOnUse" x="137" y="396" width="664" height="268">
<path d="M259.369 661.524V613.023H149.975L137.938 582.223L214.054 398.484H284.151L219.718 554.963H259.369V516.02L272.468 482.034H328.05V554.963H349.291V602.402L328.05 613.023V661.524H259.369ZM441.255 663.648C416.945 663.648 398.89 657.394 387.089 644.885C375.288 632.14 369.388 614.557 369.388 592.135V471.413C369.388 447.103 375.642 428.576 388.151 415.831C400.66 402.85 418.479 396.36 441.609 396.36H498.961C521.382 396.36 538.493 402.85 550.294 415.831C562.095 428.576 567.995 447.103 567.995 471.413V592.135C567.995 614.321 561.977 631.786 549.94 644.531C538.139 657.276 521.028 663.648 498.607 663.648H441.255ZM458.248 602.048H479.489C485.862 602.048 490.7 600.514 494.004 597.446C497.545 594.141 499.315 588.831 499.315 581.514V478.493C499.315 470.233 497.663 464.804 494.358 462.208C491.054 459.376 487.042 457.96 482.321 457.96H455.77C443.969 457.96 438.068 464.804 438.068 478.493V581.16C438.068 588.713 439.72 594.141 443.025 597.446C446.329 600.514 451.403 602.048 458.248 602.048ZM710.889 661.524V613.023H601.495L589.458 582.223L665.573 398.484H735.67L671.238 554.963H710.889V516.02L723.988 482.034H779.569V554.963H800.811V602.402L779.569 613.023V661.524H710.889Z" fill="white"/>
</mask>
<g mask="url(#mask0)">
<path d="M364.462 551.252L769.983 705.653L612.092 1113.1L319.067 808.553L364.462 551.252Z" fill="#E9ECF1"/>
</g>
<g filter="url(#filter1_i)">
<path d="M319.852 106.327H634.688L485.905 299.867L366.969 333.255L319.852 106.327Z" fill="#18172A"/>
</g>
<path opacity="0.7" d="M370.008 339.476L485.368 306.439L573.336 399.077L618.784 496.132L755.92 674.912L583.738 614.411L370.008 535.441V339.476Z" fill="url(#paint3_linear)"/>
<mask id="mask1" style="mask-type:alpha" maskUnits="userSpaceOnUse" x="152" y="396" width="664" height="268">
<path d="M274.185 661.524V613.023H164.792L152.755 582.223L228.87 398.484H298.967L234.535 554.963H274.185V516.02L287.284 482.034H342.866V554.963H364.108V602.402L342.866 613.023V661.524H274.185ZM456.071 663.648C431.761 663.648 413.706 657.394 401.905 644.885C390.104 632.14 384.204 614.557 384.204 592.135V471.413C384.204 447.103 390.458 428.576 402.967 415.831C415.476 402.85 433.295 396.36 456.425 396.36H513.777C536.199 396.36 553.31 402.85 565.111 415.831C576.911 428.576 582.812 447.103 582.812 471.413V592.135C582.812 614.321 576.793 631.786 564.757 644.531C552.956 657.276 535.845 663.648 513.423 663.648H456.071ZM473.064 602.048H494.306C500.678 602.048 505.516 600.514 508.821 597.446C512.361 594.141 514.131 588.831 514.131 581.515V478.493C514.131 470.233 512.479 464.804 509.175 462.208C505.87 459.376 501.858 457.96 497.138 457.96H470.586C458.785 457.96 452.885 464.804 452.885 478.493V581.161C452.885 588.713 454.537 594.141 457.841 597.446C461.145 600.514 466.22 602.048 473.064 602.048ZM725.705 661.524V613.023H616.311L604.275 582.223L680.39 398.484H750.487L686.054 554.963H725.705V516.02L738.804 482.034H794.386V554.963H815.627V602.402L794.386 613.023V661.524H725.705Z" fill="white"/>
</mask>
<g mask="url(#mask1)">
<path d="M-392.375 106.327H310.272L378.438 365.965L374.025 557.395L-392.375 307.053V106.327Z" fill="#E9ECF1"/>
</g>
<mask id="mask2" style="mask-type:alpha" maskUnits="userSpaceOnUse" x="134" y="396" width="664" height="268">
<path d="M255.599 661.524V613.023H146.206L134.169 582.223L210.284 398.484H280.381L215.949 554.963H255.599V516.02L268.698 482.034H324.28V554.963H345.522V602.402L324.28 613.023V661.524H255.599ZM437.485 663.648C413.175 663.648 395.12 657.394 383.319 644.885C371.518 632.14 365.618 614.557 365.618 592.135V471.413C365.618 447.103 371.872 428.576 384.381 415.831C396.89 402.85 414.709 396.36 437.839 396.36H495.191C517.613 396.36 534.724 402.85 546.525 415.831C558.325 428.576 564.226 447.103 564.226 471.413V592.135C564.226 614.321 558.207 631.786 546.171 644.531C534.37 657.276 517.259 663.648 494.837 663.648H437.485ZM454.478 602.048H475.72C482.092 602.048 486.931 600.514 490.235 597.446C493.775 594.141 495.545 588.831 495.545 581.515V478.493C495.545 470.233 493.893 464.804 490.589 462.208C487.285 459.376 483.272 457.96 478.552 457.96H452C440.199 457.96 434.299 464.804 434.299 478.493V581.161C434.299 588.713 435.951 594.141 439.255 597.446C442.559 600.514 447.634 602.048 454.478 602.048ZM707.119 661.524V613.023H597.725L585.689 582.223L661.804 398.484H731.901L667.468 554.963H707.119V516.02L720.218 482.034H775.8V554.963H797.041V602.402L775.8 613.023V661.524H707.119Z" fill="white"/>
</mask>
<g mask="url(#mask2)">
<path d="M-393.261 324.002L359.568 574.741L215.236 965.994H-393.262L-393.261 324.002Z" fill="#E9ECF1"/>
</g>
<mask id="mask3" style="mask-type:alpha" maskUnits="userSpaceOnUse" x="143" y="378" width="664" height="268">
<path d="M265.338 643.823V595.321H155.944L143.907 564.521L220.022 380.783H290.119L225.687 537.261H265.338V498.319L278.437 464.332H334.018V537.261H355.26V584.701L334.018 595.321V643.823H265.338ZM447.223 645.947C422.914 645.947 404.858 639.693 393.058 627.184C381.257 614.439 375.356 596.856 375.356 574.434V453.712C375.356 429.402 381.611 410.875 394.12 398.13C406.629 385.149 424.448 378.658 447.577 378.658H504.929C527.351 378.658 544.462 385.149 556.263 398.13C568.064 410.875 573.964 429.402 573.964 453.712V574.434C573.964 596.62 567.946 614.085 555.909 626.83C544.108 639.575 526.997 645.947 504.575 645.947H447.223ZM464.217 584.347H485.458C491.83 584.347 496.669 582.813 499.973 579.744C503.513 576.44 505.283 571.13 505.283 563.813V460.792C505.283 452.532 503.631 447.103 500.327 444.507C497.023 441.675 493.011 440.259 488.29 440.259H461.738C449.938 440.259 444.037 447.103 444.037 460.792V563.459C444.037 571.012 445.689 576.44 448.993 579.744C452.298 582.813 457.372 584.347 464.217 584.347ZM716.857 643.823V595.321H607.464L595.427 564.521L671.542 380.783H741.639L677.207 537.261H716.857V498.319L729.956 464.332H785.538V537.261H806.78V584.701L785.538 595.321V643.823H716.857Z" fill="white"/>
</mask>
<g mask="url(#mask3)">
<path d="M1014.8 111.581H1465.56V962.125H1002.21L535.141 358.349L628.206 111.581H1014.8Z" fill="#E9ECF1"/>
</g>
<mask id="mask4" style="mask-type:alpha" maskUnits="userSpaceOnUse" x="152" y="396" width="664" height="268">
<path d="M274.185 661.524V613.023H164.792L152.755 582.223L228.87 398.484H298.967L234.535 554.963H274.185V516.02L287.284 482.034H342.866V554.963H364.108V602.402L342.866 613.023V661.524H274.185ZM456.071 663.648C431.761 663.648 413.706 657.394 401.905 644.885C390.104 632.14 384.204 614.557 384.204 592.135V471.413C384.204 447.103 390.458 428.576 402.967 415.831C415.476 402.85 433.295 396.36 456.425 396.36H513.777C536.199 396.36 553.31 402.85 565.111 415.831C576.911 428.576 582.812 447.103 582.812 471.413V592.135C582.812 614.321 576.793 631.786 564.757 644.531C552.956 657.276 535.845 663.648 513.423 663.648H456.071ZM473.064 602.048H494.306C500.678 602.048 505.516 600.514 508.821 597.446C512.361 594.141 514.131 588.831 514.131 581.515V478.493C514.131 470.233 512.479 464.804 509.175 462.208C505.87 459.376 501.858 457.96 497.138 457.96H470.586C458.785 457.96 452.885 464.804 452.885 478.493V581.161C452.885 588.713 454.537 594.141 457.841 597.446C461.145 600.514 466.22 602.048 473.064 602.048ZM725.705 661.524V613.023H616.311L604.275 582.223L680.39 398.484H750.487L686.054 554.963H725.705V516.02L738.804 482.034H794.386V554.963H815.627V602.402L794.386 613.023V661.524H725.705Z" fill="white"/>
</mask>
<g mask="url(#mask4)">
<path d="M430.268 344.007L557.094 399.192L614.837 491.056L755.725 674.891L576.054 611.911L349.922 526.264L430.268 344.007Z" fill="#E9ECF1"/>
</g>
<defs>
<filter id="filter0_i" x="374.977" y="549.361" width="589.894" height="623.555" filterUnits="userSpaceOnUse" color-interpolation-filters="sRGB">
<feFlood flood-opacity="0" result="BackgroundImageFix"/>
<feBlend mode="normal" in="SourceGraphic" in2="BackgroundImageFix" result="shape"/>
<feColorMatrix in="SourceAlpha" type="matrix" values="0 0 0 0 0 0 0 0 0 0 0 0 0 0 0 0 0 0 127 0" result="hardAlpha"/>
<feOffset dy="3.54025"/>
<feGaussianBlur stdDeviation="44.2531"/>
<feComposite in2="hardAlpha" operator="arithmetic" k2="-1" k3="1"/>
<feColorMatrix type="matrix" values="0 0 0 0 0 0 0 0 0 0 0 0 0 0 0 0 0 0 1 0"/>
<feBlend mode="normal" in2="shape" result="effect1_innerShadow"/>
</filter>
<filter id="filter1_i" x="319.852" y="106.327" width="314.836" height="230.467" filterUnits="userSpaceOnUse" color-interpolation-filters="sRGB">
<feFlood flood-opacity="0" result="BackgroundImageFix"/>
<feBlend mode="normal" in="SourceGraphic" in2="BackgroundImageFix" result="shape"/>
<feColorMatrix in="SourceAlpha" type="matrix" values="0 0 0 0 0 0 0 0 0 0 0 0 0 0 0 0 0 0 127 0" result="hardAlpha"/>
<feOffset dy="3.54025"/>
<feGaussianBlur stdDeviation="44.2531"/>
<feComposite in2="hardAlpha" operator="arithmetic" k2="-1" k3="1"/>
<feColorMatrix type="matrix" values="0 0 0 0 0 0 0 0 0 0 0 0 0 0 0 0 0 0 1 0"/>
<feBlend mode="normal" in2="shape" result="effect1_innerShadow"/>
</filter>
<linearGradient id="paint0_linear" x1="-312.185" y1="106.327" x2="362.446" y2="553.508" gradientUnits="userSpaceOnUse">
<stop stop-color="#151424"/>
<stop offset="1" stop-color="#2B2A46"/>
</linearGradient>
<linearGradient id="paint1_linear" x1="-304.812" y1="965.994" x2="204.489" y2="378.796" gradientUnits="userSpaceOnUse">
<stop stop-color="#151424"/>
<stop offset="1" stop-color="#2B2A46"/>
</linearGradient>
<linearGradient id="paint2_linear" x1="1362.95" y1="119.522" x2="749.863" y2="573.433" gradientUnits="userSpaceOnUse">
<stop stop-color="#151424"/>
<stop offset="1" stop-color="#2B2A46"/>
</linearGradient>
<linearGradient id="paint3_linear" x1="83.0938" y1="90.3021" x2="580.326" y2="244.878" gradientUnits="userSpaceOnUse">
<stop stop-color="#151424"/>
<stop offset="1" stop-color="#2B2A46"/>
</linearGradient>
</defs>
</svg>
