<svg width="487" height="503" viewBox="0 0 487 503" fill="none" xmlns="http://www.w3.org/2000/svg">
<g filter="url(#filter0_f)">
<ellipse cx="243.588" cy="407.642" rx="193.155" ry="44.6383" fill="#050414"/>
</g>
<g filter="url(#filter1_d)">
<path d="M132.797 80.6372C110.723 102.713 98.1999 131.792 97.293 162.864L106.193 162.694C108.206 102.397 157.877 53.961 218.656 53.961C232.551 53.961 245.862 56.4991 258.159 61.1244C258.922 61.7998 259.915 62.214 260.999 62.2378C301.558 78.7699 330.377 118.305 331.166 164.551L331.406 164.671L340.205 163.967C340.15 163.962 340.096 163.957 340.047 163.953C340.027 162.932 339.993 161.912 339.948 160.895L340.108 160.911L339.288 151.894L339.209 151.885C336.003 124.983 323.968 100.091 304.515 80.6372C296.949 73.0719 288.556 66.6357 279.547 61.3961L280.001 61.3751L262.283 53.1221C262.219 53.0977 262.156 53.0756 262.093 53.0518L256.364 51.2345C256.364 51.2345 245.311 47.7441 233.676 46.5806C222.78 45.4911 219.926 45.1275 219.607 45.0856C219.29 45.0815 218.974 45.0745 218.656 45.0745C186.223 45.0745 155.731 57.7044 132.797 80.6372Z" fill="#EB00FF"/>
</g>
<g filter="url(#filter2_d)">
<path d="M212.453 90.251L197.449 119.008L164.861 112.114C163.235 111.771 161.553 112.362 160.501 113.649C159.449 114.936 159.203 116.701 159.863 118.227L178.221 160.64L187.765 160.318L171.434 122.589L198.909 128.401C200.86 128.812 202.846 127.876 203.768 126.109L216.392 101.912L229.015 126.109C229.938 127.876 231.922 128.81 233.875 128.401L261.308 122.597L245.893 158.272L255.622 157.764L272.913 118.243C273.58 116.717 273.34 114.946 272.288 113.656C271.237 112.365 269.553 111.772 267.923 112.114L235.334 119.008L220.331 90.251C219.565 88.7839 218.047 87.863 216.392 87.863C214.736 87.863 213.218 88.7839 212.453 90.251Z" fill="#EB00FF"/>
</g>
<g filter="url(#filter3_d)">
<path d="M115.926 162.51L124.826 162.341C126.656 112.163 168.039 71.905 218.656 71.905C269.476 71.905 310.993 112.487 312.51 162.946L312.791 162.926L321.417 163.735C320.309 108.009 274.64 63.0179 218.656 63.0179C163.082 63.0179 117.674 107.352 115.926 162.51Z" fill="#EB00FF"/>
</g>
<path d="M138.389 223.046C135.58 225.688 134.156 229.417 134.156 234.13C134.156 239.677 136.497 242.922 138.46 244.667C141.992 247.809 146.59 248.294 149.096 248.294C150.011 248.294 150.648 248.23 150.851 248.206C153.288 247.919 155.048 245.709 154.761 243.272C154.475 240.835 152.284 239.09 149.845 239.376C148.917 239.473 145.911 239.423 144.345 238.008C144.023 237.718 143.043 236.833 143.043 234.13C143.043 231.966 143.526 230.414 144.478 229.519C145.091 228.942 146.604 228.004 149.848 228.203C150.079 228.217 150.243 228.221 150.332 228.221C152.786 228.221 154.775 226.232 154.775 223.778C154.775 221.367 152.855 219.405 150.46 219.337L150.39 219.333C149.901 219.302 149.425 219.287 148.966 219.287C143.569 219.287 140.256 221.29 138.389 223.046ZM150.332 219.335H150.336C150.361 219.335 150.39 219.335 150.425 219.336C150.395 219.336 150.363 219.335 150.332 219.335Z" fill="#F3CF89"/>
<path d="M207.809 159.64L188.519 160.292L188.508 160.317L207.966 159.642C207.924 159.642 207.883 159.64 207.84 159.64C207.83 159.64 207.819 159.64 207.809 159.64Z" fill="url(#paint0_linear)"/>
<mask id="path-7-inside-1" fill="white">
<path d="M294.758 0.624298C290.919 0.624298 287.777 4.46368 287.777 9.15646C287.777 9.15646 278.774 39.7204 279.308 40.9246L271.194 41.3288L223.611 43.6994C222.415 43.7587 221.355 44.2881 220.595 45.0984C220.267 45.0932 219.937 45.0903 219.607 45.0856C219.926 45.1275 222.78 45.4911 233.676 46.5807C245.311 47.7441 256.364 51.2345 256.364 51.2345L262.093 53.0518C260.153 52.3101 258.195 51.6132 256.218 50.9727L399.467 43.8361L394.27 47.2049L262.701 53.2769C262.562 53.224 262.421 53.1757 262.283 53.1222L280.001 61.3752L389.843 56.3054L364.051 154.44L339.288 151.894L340.108 160.911L364.513 163.422L366.286 166.924C363.829 166.558 360.9 166.167 357.387 165.749C349.743 164.838 342.316 164.156 340.205 163.967L331.407 164.671L331.166 164.551C331.167 164.567 331.167 164.583 331.167 164.599L321.419 163.773C321.419 163.76 321.418 163.747 321.418 163.735L312.791 162.926L312.51 162.946C312.511 162.971 312.512 162.993 312.513 163.018L312.063 162.98H312.062L305.612 162.433C305.013 162.044 304.323 161.789 303.581 161.725C262.098 158.134 261.784 158.192 261.019 158.325C260.901 158.346 260.786 158.373 260.672 158.403C259.428 158.102 257.858 157.903 255.842 157.778L245.893 158.272L246.474 157.69L131.814 162.208H131.814L124.821 162.444C124.822 162.409 124.824 162.375 124.826 162.341L115.927 162.51C115.924 162.589 115.919 162.667 115.917 162.745L106.177 163.074C106.181 162.947 106.189 162.821 106.193 162.694L97.293 162.864C97.2889 163.005 97.2808 163.145 97.2773 163.287C92.8469 163.412 87.1646 163.607 81.4415 163.892C54.9654 165.213 53.4535 167.071 51.9916 168.868C50.6414 170.526 50.0376 172.932 50.7083 180.883C51.0597 185.053 51.7531 190.578 52.7694 197.308C54.4872 208.683 56.5716 219.785 56.5925 219.896C56.7862 220.927 57.3377 221.818 58.1009 222.462C58.6303 230.186 60.1055 251.493 60.9392 261.22C60.7926 261.614 60.696 262.034 60.6669 262.471C60.6605 262.565 60.0235 272.035 59.7362 281.806C59.1108 303.034 60.6972 305.017 61.8554 306.465C63.1416 308.073 64.5988 309.895 92.9999 315.455C106.306 318.061 119.444 320.272 119.575 320.294C119.577 320.295 119.578 320.295 119.58 320.295L210.647 336.163C210.687 336.169 210.727 336.173 210.768 336.179C210.808 336.184 210.847 336.193 210.887 336.199C211.011 336.212 223.453 337.682 236.188 338.838C247.692 339.881 254.683 340.25 259.043 340.25C263.509 340.25 265.216 339.863 266.182 339.415C269.086 338.799 277.803 336.745 306.307 329.894C307.879 329.517 309.122 328.315 309.552 326.757C309.577 326.666 309.665 326.331 309.77 325.783L332.888 318.284C333.414 318.283 333.942 318.189 334.446 317.998C342.909 314.799 370.819 304.169 374.631 301.696C377.108 300.089 378.985 297.351 378.736 278.374C378.617 269.342 378.051 260.765 378.027 260.405C377.977 259.652 377.737 258.955 377.362 258.353C377.49 247.225 378.387 221.862 378.65 214.559C378.668 214.461 378.688 214.363 378.699 214.264C378.802 213.338 381.019 193.303 381.376 178.262C386.917 178.171 396.735 177.416 407.37 173.81C428.827 166.537 443.214 151.155 448.974 129.328C455.231 105.619 455.093 84.9938 448.566 68.0231C443.135 53.9023 433.54 42.679 420.044 34.6628C420.013 34.6442 419.983 34.6262 419.952 34.6087C419.173 34.1672 418.315 33.9851 417.481 34.041L415.758 34.1265C415.614 34.1265 415.469 34.134 415.324 34.148L315.977 39.0979L307.795 39.5057C308.015 38.6785 317.445 9.15646 317.445 9.15646C317.445 4.46368 314.304 0.624298 310.465 0.624298H294.758ZM420.305 45.4446C437.238 57.6375 452.442 81.3575 440.381 127.06C435.373 146.038 423.399 158.905 404.791 165.301C396.257 168.234 388.166 169.096 383.017 169.314L420.305 45.4446ZM372.108 158.747L399.538 54.381L410.466 47.2962L375.123 164.704L372.108 158.747ZM188.519 160.292L207.809 159.64C207.862 159.638 207.914 159.643 207.966 159.643L188.508 160.318L188.519 160.292ZM222.275 196.026C213.862 188.192 212.616 174.705 212.539 168.198C230.977 166.804 251.189 165.996 257.381 166.81C257.422 167.257 257.453 167.783 257.477 168.366C257.498 170.838 257.485 173.594 257.447 176.513C257.17 186.103 256.231 200.296 255.038 214.035C248.351 212.433 235.084 207.953 222.275 196.026ZM266.339 176.341C266.415 173.398 266.42 171.046 266.37 169.156C266.366 168.589 266.362 168.029 266.356 167.488C273.622 168.074 287.93 169.294 299.366 170.281C299.62 174.589 298.748 183.453 290.052 194.452C286.732 198.649 280.738 203.066 274.858 206.8C274.203 207.021 273.616 207.394 273.136 207.877C270.293 209.627 267.542 211.195 265.207 212.473C265.599 203.559 266.189 188.608 266.339 176.341ZM110.382 171.824L203.645 168.673C203.682 170.994 203.853 173.968 204.335 177.266L109.897 179.154C110.239 176.342 110.359 173.823 110.382 171.824ZM307.574 178.268C308.065 175.73 308.242 173.479 308.247 171.575L334.598 173.809C334.653 175.671 334.821 177.881 335.196 180.338L307.574 178.268ZM59.2929 174.843C65.0281 173.527 83.979 172.449 101.478 172.059C101.352 178.709 99.9882 191.804 91.748 199.477C79.5125 210.871 69.4993 213.747 64.6232 214.449C61.6902 198.286 59.1312 180.528 59.2929 174.843ZM350.736 196.588C344.789 187.714 343.608 178.419 343.484 173.191C355.149 174.303 367.434 175.853 372.513 177.047C372.322 187.546 371.076 201.33 370.364 208.493C364.863 207.134 355.61 203.861 350.736 196.588ZM163.747 302.266V263.747C171.509 263.605 174.403 262.19 176.057 260.672C177.588 259.265 178.33 257.379 178.147 255.359C177.575 249.072 179.01 223.243 179.612 213.822C179.687 212.634 179.283 211.465 178.489 210.578C177.695 209.689 176.578 209.158 175.389 209.101L164.456 208.58L164.441 186.952L206.334 186.114C208.17 191.935 211.214 197.869 216.219 202.53C224.172 209.935 232.281 214.771 239.254 217.928C238.672 229.339 236.729 269.165 237.228 281.82C232.756 284.284 228.292 287.471 224.652 291.566C219.137 297.77 215.342 303.76 212.722 309.151L163.747 302.266ZM295.477 286.044C290.8 280.783 284.547 277.797 278.519 276.121C278.148 265.213 279.611 232.441 280.592 213.666C286.848 209.605 293.221 204.771 297.022 199.963C300.666 195.354 303.166 190.98 304.871 186.977L337.395 189.414C338.711 193.319 340.616 197.449 343.353 201.535C346.828 206.72 351.747 210.326 356.62 212.824C356.264 221.564 355.181 248.869 355.069 260.33C350.84 262.294 346.477 265.194 342.666 269.481C335.032 278.069 331.22 286.916 329.401 294.489L305.446 300.7C303.224 296.119 300.032 291.169 295.477 286.044ZM145.802 207.692L145.786 187.325L155.554 187.129L155.568 208.158L145.802 207.692ZM118.672 295.931C115.644 288.765 111.33 281.014 105.424 275.419C97.2854 267.709 89.3367 263.411 82.6399 261.039C82.5108 249.891 81.6364 225.531 81.3566 217.936C86.2867 215.326 91.8556 211.519 97.8038 205.981C103.237 200.923 106.358 194.363 108.133 188.078L136.9 187.503L136.914 207.269L129.526 206.917C127.411 206.817 125.518 208.223 125.005 210.279C120.467 228.427 124.745 255.337 124.929 256.473C125.232 258.337 126.68 259.807 128.539 260.137C128.76 260.175 131.798 260.712 136.227 261.361V298.399L118.672 295.931ZM148.702 253.996C142.558 253.343 136.71 252.465 133.261 251.913C132.388 245.129 130.703 228.686 132.888 215.975L170.468 217.764C169.944 226.664 168.887 246.207 169.188 254.341C168.148 254.585 166.149 254.871 162.5 254.871C159.314 254.871 154.868 254.653 148.702 253.996ZM365.374 216.327C366.968 216.811 368.418 217.175 369.654 217.449C369.325 226.73 368.667 245.991 368.499 256.551C367.174 256.711 365.653 256.956 364.001 257.325C364.213 246.196 364.98 226.191 365.374 216.327ZM263.527 274.072C263.162 260.023 263.345 233.589 263.434 223.446C264.947 222.69 267.859 221.199 271.415 219.198C270.712 233.417 269.422 261.712 269.6 274.441C267.313 274.194 265.24 274.096 263.527 274.072ZM247.98 221.288C250.577 222.113 252.811 222.67 254.549 223.038C254.458 233.149 254.26 260.625 254.667 275.06C252.467 275.612 249.435 276.487 246.026 277.78C245.956 265.417 247.096 238.915 247.98 221.288ZM69.6127 258.29C68.8111 248.472 67.593 230.959 67.0502 223.057C68.654 222.774 70.5155 222.335 72.5987 221.667C72.9245 230.73 73.5376 248.517 73.718 258.748C72.1851 258.505 70.8076 258.364 69.6127 258.29ZM145.114 299.647V262.536C146.267 262.672 147.445 262.803 148.634 262.924C150.897 263.157 152.962 263.334 154.861 263.466V301.017L145.114 299.647ZM349.308 275.385C355.695 268.2 364.406 266.046 369.421 265.405C370.066 277.725 370.061 290.925 369.038 294.645C365.239 296.514 351.022 302.163 336.774 307.606C336.71 300.596 338.366 287.695 349.308 275.385ZM68.9542 300.682C68.1433 296.249 68.4498 281.114 69.2747 267.151C74.9663 267.52 86.6637 269.889 99.3116 281.87C107.335 289.471 112.082 302.575 114.336 310.379C94.3291 306.879 74.0158 302.718 68.9542 300.682ZM264.075 282.983C270.554 283.15 282.256 284.547 288.835 291.948C300.91 305.533 301.681 317.089 301.33 321.95C290.183 324.627 276.088 327.997 268.727 329.728C267.751 313.058 265.261 292.328 264.075 282.983ZM216.057 327.852C216.769 322.183 219.684 310.532 231.294 297.469C238.066 289.851 248.914 285.894 255.088 284.154C256.131 295.13 258.565 320.666 259.667 331.399C259.553 331.4 259.438 331.4 259.319 331.4C251.475 331.4 233.321 329.818 216.057 327.852ZM308.637 309.053L327.977 304.039C327.825 306.593 327.878 308.794 327.998 310.529L310.039 316.353C309.816 314.18 309.386 311.728 308.637 309.053ZM123.993 312.043C123.579 310.354 122.967 308.057 122.13 305.391L209.309 317.645C208.195 321.16 207.595 324.193 207.284 326.556L123.993 312.043Z"/>
</mask>
<path d="M294.758 0.624298C290.919 0.624298 287.777 4.46368 287.777 9.15646C287.777 9.15646 278.774 39.7204 279.308 40.9246L271.194 41.3288L223.611 43.6994C222.415 43.7587 221.355 44.2881 220.595 45.0984C220.267 45.0932 219.937 45.0903 219.607 45.0856C219.926 45.1275 222.78 45.4911 233.676 46.5807C245.311 47.7441 256.364 51.2345 256.364 51.2345L262.093 53.0518C260.153 52.3101 258.195 51.6132 256.218 50.9727L399.467 43.8361L394.27 47.2049L262.701 53.2769C262.562 53.224 262.421 53.1757 262.283 53.1222L280.001 61.3752L389.843 56.3054L364.051 154.44L339.288 151.894L340.108 160.911L364.513 163.422L366.286 166.924C363.829 166.558 360.9 166.167 357.387 165.749C349.743 164.838 342.316 164.156 340.205 163.967L331.407 164.671L331.166 164.551C331.167 164.567 331.167 164.583 331.167 164.599L321.419 163.773C321.419 163.76 321.418 163.747 321.418 163.735L312.791 162.926L312.51 162.946C312.511 162.971 312.512 162.993 312.513 163.018L312.063 162.98H312.062L305.612 162.433C305.013 162.044 304.323 161.789 303.581 161.725C262.098 158.134 261.784 158.192 261.019 158.325C260.901 158.346 260.786 158.373 260.672 158.403C259.428 158.102 257.858 157.903 255.842 157.778L245.893 158.272L246.474 157.69L131.814 162.208H131.814L124.821 162.444C124.822 162.409 124.824 162.375 124.826 162.341L115.927 162.51C115.924 162.589 115.919 162.667 115.917 162.745L106.177 163.074C106.181 162.947 106.189 162.821 106.193 162.694L97.293 162.864C97.2889 163.005 97.2808 163.145 97.2773 163.287C92.8469 163.412 87.1646 163.607 81.4415 163.892C54.9654 165.213 53.4535 167.071 51.9916 168.868C50.6414 170.526 50.0376 172.932 50.7083 180.883C51.0597 185.053 51.7531 190.578 52.7694 197.308C54.4872 208.683 56.5716 219.785 56.5925 219.896C56.7862 220.927 57.3377 221.818 58.1009 222.462C58.6303 230.186 60.1055 251.493 60.9392 261.22C60.7926 261.614 60.696 262.034 60.6669 262.471C60.6605 262.565 60.0235 272.035 59.7362 281.806C59.1108 303.034 60.6972 305.017 61.8554 306.465C63.1416 308.073 64.5988 309.895 92.9999 315.455C106.306 318.061 119.444 320.272 119.575 320.294C119.577 320.295 119.578 320.295 119.58 320.295L210.647 336.163C210.687 336.169 210.727 336.173 210.768 336.179C210.808 336.184 210.847 336.193 210.887 336.199C211.011 336.212 223.453 337.682 236.188 338.838C247.692 339.881 254.683 340.25 259.043 340.25C263.509 340.25 265.216 339.863 266.182 339.415C269.086 338.799 277.803 336.745 306.307 329.894C307.879 329.517 309.122 328.315 309.552 326.757C309.577 326.666 309.665 326.331 309.77 325.783L332.888 318.284C333.414 318.283 333.942 318.189 334.446 317.998C342.909 314.799 370.819 304.169 374.631 301.696C377.108 300.089 378.985 297.351 378.736 278.374C378.617 269.342 378.051 260.765 378.027 260.405C377.977 259.652 377.737 258.955 377.362 258.353C377.49 247.225 378.387 221.862 378.65 214.559C378.668 214.461 378.688 214.363 378.699 214.264C378.802 213.338 381.019 193.303 381.376 178.262C386.917 178.171 396.735 177.416 407.37 173.81C428.827 166.537 443.214 151.155 448.974 129.328C455.231 105.619 455.093 84.9938 448.566 68.0231C443.135 53.9023 433.54 42.679 420.044 34.6628C420.013 34.6442 419.983 34.6262 419.952 34.6087C419.173 34.1672 418.315 33.9851 417.481 34.041L415.758 34.1265C415.614 34.1265 415.469 34.134 415.324 34.148L315.977 39.0979L307.795 39.5057C308.015 38.6785 317.445 9.15646 317.445 9.15646C317.445 4.46368 314.304 0.624298 310.465 0.624298H294.758ZM420.305 45.4446C437.238 57.6375 452.442 81.3575 440.381 127.06C435.373 146.038 423.399 158.905 404.791 165.301C396.257 168.234 388.166 169.096 383.017 169.314L420.305 45.4446ZM372.108 158.747L399.538 54.381L410.466 47.2962L375.123 164.704L372.108 158.747ZM188.519 160.292L207.809 159.64C207.862 159.638 207.914 159.643 207.966 159.643L188.508 160.318L188.519 160.292ZM222.275 196.026C213.862 188.192 212.616 174.705 212.539 168.198C230.977 166.804 251.189 165.996 257.381 166.81C257.422 167.257 257.453 167.783 257.477 168.366C257.498 170.838 257.485 173.594 257.447 176.513C257.17 186.103 256.231 200.296 255.038 214.035C248.351 212.433 235.084 207.953 222.275 196.026ZM266.339 176.341C266.415 173.398 266.42 171.046 266.37 169.156C266.366 168.589 266.362 168.029 266.356 167.488C273.622 168.074 287.93 169.294 299.366 170.281C299.62 174.589 298.748 183.453 290.052 194.452C286.732 198.649 280.738 203.066 274.858 206.8C274.203 207.021 273.616 207.394 273.136 207.877C270.293 209.627 267.542 211.195 265.207 212.473C265.599 203.559 266.189 188.608 266.339 176.341ZM110.382 171.824L203.645 168.673C203.682 170.994 203.853 173.968 204.335 177.266L109.897 179.154C110.239 176.342 110.359 173.823 110.382 171.824ZM307.574 178.268C308.065 175.73 308.242 173.479 308.247 171.575L334.598 173.809C334.653 175.671 334.821 177.881 335.196 180.338L307.574 178.268ZM59.2929 174.843C65.0281 173.527 83.979 172.449 101.478 172.059C101.352 178.709 99.9882 191.804 91.748 199.477C79.5125 210.871 69.4993 213.747 64.6232 214.449C61.6902 198.286 59.1312 180.528 59.2929 174.843ZM350.736 196.588C344.789 187.714 343.608 178.419 343.484 173.191C355.149 174.303 367.434 175.853 372.513 177.047C372.322 187.546 371.076 201.33 370.364 208.493C364.863 207.134 355.61 203.861 350.736 196.588ZM163.747 302.266V263.747C171.509 263.605 174.403 262.19 176.057 260.672C177.588 259.265 178.33 257.379 178.147 255.359C177.575 249.072 179.01 223.243 179.612 213.822C179.687 212.634 179.283 211.465 178.489 210.578C177.695 209.689 176.578 209.158 175.389 209.101L164.456 208.58L164.441 186.952L206.334 186.114C208.17 191.935 211.214 197.869 216.219 202.53C224.172 209.935 232.281 214.771 239.254 217.928C238.672 229.339 236.729 269.165 237.228 281.82C232.756 284.284 228.292 287.471 224.652 291.566C219.137 297.77 215.342 303.76 212.722 309.151L163.747 302.266ZM295.477 286.044C290.8 280.783 284.547 277.797 278.519 276.121C278.148 265.213 279.611 232.441 280.592 213.666C286.848 209.605 293.221 204.771 297.022 199.963C300.666 195.354 303.166 190.98 304.871 186.977L337.395 189.414C338.711 193.319 340.616 197.449 343.353 201.535C346.828 206.72 351.747 210.326 356.62 212.824C356.264 221.564 355.181 248.869 355.069 260.33C350.84 262.294 346.477 265.194 342.666 269.481C335.032 278.069 331.22 286.916 329.401 294.489L305.446 300.7C303.224 296.119 300.032 291.169 295.477 286.044ZM145.802 207.692L145.786 187.325L155.554 187.129L155.568 208.158L145.802 207.692ZM118.672 295.931C115.644 288.765 111.33 281.014 105.424 275.419C97.2854 267.709 89.3367 263.411 82.6399 261.039C82.5108 249.891 81.6364 225.531 81.3566 217.936C86.2867 215.326 91.8556 211.519 97.8038 205.981C103.237 200.923 106.358 194.363 108.133 188.078L136.9 187.503L136.914 207.269L129.526 206.917C127.411 206.817 125.518 208.223 125.005 210.279C120.467 228.427 124.745 255.337 124.929 256.473C125.232 258.337 126.68 259.807 128.539 260.137C128.76 260.175 131.798 260.712 136.227 261.361V298.399L118.672 295.931ZM148.702 253.996C142.558 253.343 136.71 252.465 133.261 251.913C132.388 245.129 130.703 228.686 132.888 215.975L170.468 217.764C169.944 226.664 168.887 246.207 169.188 254.341C168.148 254.585 166.149 254.871 162.5 254.871C159.314 254.871 154.868 254.653 148.702 253.996ZM365.374 216.327C366.968 216.811 368.418 217.175 369.654 217.449C369.325 226.73 368.667 245.991 368.499 256.551C367.174 256.711 365.653 256.956 364.001 257.325C364.213 246.196 364.98 226.191 365.374 216.327ZM263.527 274.072C263.162 260.023 263.345 233.589 263.434 223.446C264.947 222.69 267.859 221.199 271.415 219.198C270.712 233.417 269.422 261.712 269.6 274.441C267.313 274.194 265.24 274.096 263.527 274.072ZM247.98 221.288C250.577 222.113 252.811 222.67 254.549 223.038C254.458 233.149 254.26 260.625 254.667 275.06C252.467 275.612 249.435 276.487 246.026 277.78C245.956 265.417 247.096 238.915 247.98 221.288ZM69.6127 258.29C68.8111 248.472 67.593 230.959 67.0502 223.057C68.654 222.774 70.5155 222.335 72.5987 221.667C72.9245 230.73 73.5376 248.517 73.718 258.748C72.1851 258.505 70.8076 258.364 69.6127 258.29ZM145.114 299.647V262.536C146.267 262.672 147.445 262.803 148.634 262.924C150.897 263.157 152.962 263.334 154.861 263.466V301.017L145.114 299.647ZM349.308 275.385C355.695 268.2 364.406 266.046 369.421 265.405C370.066 277.725 370.061 290.925 369.038 294.645C365.239 296.514 351.022 302.163 336.774 307.606C336.71 300.596 338.366 287.695 349.308 275.385ZM68.9542 300.682C68.1433 296.249 68.4498 281.114 69.2747 267.151C74.9663 267.52 86.6637 269.889 99.3116 281.87C107.335 289.471 112.082 302.575 114.336 310.379C94.3291 306.879 74.0158 302.718 68.9542 300.682ZM264.075 282.983C270.554 283.15 282.256 284.547 288.835 291.948C300.91 305.533 301.681 317.089 301.33 321.95C290.183 324.627 276.088 327.997 268.727 329.728C267.751 313.058 265.261 292.328 264.075 282.983ZM216.057 327.852C216.769 322.183 219.684 310.532 231.294 297.469C238.066 289.851 248.914 285.894 255.088 284.154C256.131 295.13 258.565 320.666 259.667 331.399C259.553 331.4 259.438 331.4 259.319 331.4C251.475 331.4 233.321 329.818 216.057 327.852ZM308.637 309.053L327.977 304.039C327.825 306.593 327.878 308.794 327.998 310.529L310.039 316.353C309.816 314.18 309.386 311.728 308.637 309.053ZM123.993 312.043C123.579 310.354 122.967 308.057 122.13 305.391L209.309 317.645C208.195 321.16 207.595 324.193 207.284 326.556L123.993 312.043Z" fill="#F3CF89" stroke="#18172A" stroke-width="4.97729" mask="url(#path-7-inside-1)"/>
<defs>
<filter id="filter0_f" x="0.433105" y="313.003" width="486.309" height="189.277" filterUnits="userSpaceOnUse" color-interpolation-filters="sRGB">
<feFlood flood-opacity="0" result="BackgroundImageFix"/>
<feBlend mode="normal" in="SourceGraphic" in2="BackgroundImageFix" result="shape"/>
<feGaussianBlur stdDeviation="25" result="effect1_foregroundBlur"/>
</filter>
<filter id="filter1_d" x="80.702" y="28.4835" width="276.094" height="152.779" filterUnits="userSpaceOnUse" color-interpolation-filters="sRGB">
<feFlood flood-opacity="0" result="BackgroundImageFix"/>
<feColorMatrix in="SourceAlpha" type="matrix" values="0 0 0 0 0 0 0 0 0 0 0 0 0 0 0 0 0 0 127 0" result="hardAlpha"/>
<feOffset/>
<feGaussianBlur stdDeviation="8.29548"/>
<feColorMatrix type="matrix" values="0 0 0 0 0.921569 0 0 0 0 0 0 0 0 0 1 0 0 0 1 0"/>
<feBlend mode="normal" in2="BackgroundImageFix" result="effect1_dropShadow"/>
<feBlend mode="normal" in="SourceGraphic" in2="effect1_dropShadow" result="shape"/>
</filter>
<filter id="filter2_d" x="142.907" y="71.2721" width="146.97" height="105.959" filterUnits="userSpaceOnUse" color-interpolation-filters="sRGB">
<feFlood flood-opacity="0" result="BackgroundImageFix"/>
<feColorMatrix in="SourceAlpha" type="matrix" values="0 0 0 0 0 0 0 0 0 0 0 0 0 0 0 0 0 0 127 0" result="hardAlpha"/>
<feOffset/>
<feGaussianBlur stdDeviation="8.29548"/>
<feColorMatrix type="matrix" values="0 0 0 0 0.921569 0 0 0 0 0 0 0 0 0 1 0 0 0 1 0"/>
<feBlend mode="normal" in2="BackgroundImageFix" result="effect1_dropShadow"/>
<feBlend mode="normal" in="SourceGraphic" in2="effect1_dropShadow" result="shape"/>
</filter>
<filter id="filter3_d" x="99.3353" y="46.4271" width="238.673" height="133.899" filterUnits="userSpaceOnUse" color-interpolation-filters="sRGB">
<feFlood flood-opacity="0" result="BackgroundImageFix"/>
<feColorMatrix in="SourceAlpha" type="matrix" values="0 0 0 0 0 0 0 0 0 0 0 0 0 0 0 0 0 0 127 0" result="hardAlpha"/>
<feOffset/>
<feGaussianBlur stdDeviation="8.29548"/>
<feColorMatrix type="matrix" values="0 0 0 0 0.921569 0 0 0 0 0 0 0 0 0 1 0 0 0 1 0"/>
<feBlend mode="normal" in2="BackgroundImageFix" result="effect1_dropShadow"/>
<feBlend mode="normal" in="SourceGraphic" in2="effect1_dropShadow" result="shape"/>
</filter>
<linearGradient id="paint0_linear" x1="-53.0531" y1="89.7403" x2="771.08" y2="320.108" gradientUnits="userSpaceOnUse">
<stop stop-color="#301402"/>
<stop offset="0.38324" stop-color="#FFE589"/>
<stop offset="1" stop-color="#1D0500"/>
</linearGradient>
</defs>
</svg>
