<svg width="236" height="199" viewBox="0 0 236 199" fill="none" xmlns="http://www.w3.org/2000/svg">
<g filter="url(#filter0_d)">
<path d="M48.3912 46.8079C35.5006 59.6992 28.1878 76.6799 27.6582 94.8244L32.8556 94.7256C34.031 59.5144 63.0365 31.2301 98.5289 31.2301C106.643 31.2301 114.416 32.7122 121.597 35.4132C122.042 35.8076 122.622 36.0495 123.255 36.0634C146.94 45.7174 163.769 68.8043 164.23 95.8099L164.37 95.8799L169.508 95.4688C169.476 95.4658 169.444 95.4631 169.416 95.4607C169.404 94.8642 169.384 94.2687 169.358 93.6745L169.451 93.6844L168.973 88.4183L168.926 88.4132C167.054 72.704 160.026 58.1682 148.667 46.8079C144.248 42.39 139.347 38.6316 134.086 35.5719L134.352 35.5596L124.005 30.7403C123.968 30.726 123.931 30.7131 123.894 30.6992L120.548 29.638C120.548 29.638 114.094 27.5997 107.3 26.9203C100.937 26.2841 99.2701 26.0718 99.0843 26.0473C98.8992 26.0449 98.7144 26.0408 98.5289 26.0408C79.5895 26.0408 61.7837 33.4161 48.3912 46.8079Z" fill="#EB00FF"/>
</g>
<g filter="url(#filter1_d)">
<path d="M94.9058 52.4214L86.1441 69.2143L67.1144 65.1885C66.1649 64.9884 65.1828 65.3335 64.5686 66.0849C63.9541 66.8363 63.8104 67.867 64.196 68.758L74.9163 93.5254L80.4895 93.3372L70.953 71.3051L86.9968 74.6991C88.1362 74.9396 89.2959 74.3927 89.8343 73.3607L97.2062 59.2311L104.578 73.3607C105.117 74.3927 106.275 74.9382 107.415 74.6991L123.435 71.3102L114.433 92.1428L120.115 91.8459L130.212 68.7676C130.602 67.8762 130.461 66.8425 129.847 66.0887C129.233 65.3349 128.25 64.9887 127.298 65.1885L108.268 69.2143L99.5067 52.4214C99.0593 51.5647 98.1727 51.027 97.2062 51.027C96.2394 51.027 95.3528 51.5647 94.9058 52.4214Z" fill="#EB00FF"/>
</g>
<g filter="url(#filter2_d)">
<path d="M38.5391 94.6174L43.7358 94.5186C44.8045 65.2169 68.9706 41.7082 98.5284 41.7082C128.205 41.7082 152.449 65.4061 153.335 94.8722L153.499 94.8603L158.536 95.3325C157.889 62.7914 131.221 36.5185 98.5284 36.5185C66.0757 36.5185 39.5595 62.4076 38.5391 94.6174Z" fill="#EB00FF"/>
</g>
<path d="M51.6562 129.968C50.0162 131.511 49.1846 133.689 49.1846 136.441C49.1846 139.68 50.5512 141.574 51.6977 142.594C53.7604 144.428 56.4454 144.712 57.9088 144.712C58.4428 144.712 58.8148 144.674 58.9337 144.66C60.3567 144.492 61.3843 143.202 61.2168 141.779C61.0497 140.356 59.7704 139.337 58.3463 139.504C57.8042 139.561 56.0489 139.531 55.1345 138.705C54.9463 138.536 54.3739 138.019 54.3739 136.441C54.3739 135.177 54.6558 134.271 55.2119 133.748C55.57 133.411 56.4535 132.863 58.3477 132.979C58.4826 132.988 58.5784 132.99 58.6303 132.99C60.0635 132.99 61.225 131.829 61.225 130.396C61.225 128.987 60.1036 127.842 58.7054 127.802L58.6646 127.799C58.3786 127.781 58.1011 127.773 57.8327 127.773C54.6809 127.773 52.7463 128.943 51.6562 129.968ZM58.6303 127.801H58.633C58.6473 127.801 58.6646 127.801 58.685 127.802C58.667 127.801 58.6487 127.801 58.6303 127.801Z" fill="#F3CF89"/>
<path d="M92.1948 92.9417L80.9306 93.3222L80.9238 93.3372L92.2865 92.9428C92.2621 92.9428 92.2379 92.9414 92.2132 92.9414C92.207 92.9414 92.2009 92.9414 92.1948 92.9417Z" fill="url(#paint0_linear)"/>
<mask id="path-6-inside-1" fill="white">
<path d="M142.969 0.0838623C140.727 0.0838623 138.892 2.3259 138.892 5.06627C138.892 5.06627 133.635 22.9142 133.946 23.6174L129.208 23.8535L101.422 25.2378C100.724 25.2724 100.105 25.5816 99.661 26.0548C99.469 26.0517 99.2764 26.05 99.0842 26.0473C99.27 26.0717 100.937 26.2841 107.3 26.9203C114.094 27.5997 120.548 29.6379 120.548 29.6379L123.894 30.6992C122.761 30.2661 121.618 29.8591 120.463 29.4851L204.114 25.3176L201.079 27.2848L124.249 30.8306C124.167 30.7997 124.086 30.7715 124.005 30.7403L134.351 35.5596L198.494 32.5991L183.433 89.9055L168.972 88.4183L169.451 93.6844L183.703 95.1505L184.738 97.1952C183.303 96.9815 181.592 96.7533 179.541 96.509C175.078 95.977 170.74 95.5792 169.508 95.4688L164.37 95.8799L164.23 95.8099C164.23 95.8191 164.23 95.8282 164.23 95.8378L158.537 95.3554C158.537 95.3476 158.537 95.3401 158.537 95.333L153.499 94.8608L153.335 94.8727C153.336 94.8869 153.336 94.9002 153.337 94.9144L153.074 94.892H153.074L149.307 94.5727C148.957 94.3458 148.554 94.1967 148.121 94.1596C123.897 92.0626 123.713 92.0963 123.267 92.1741C123.198 92.1863 123.13 92.2023 123.064 92.2196C122.338 92.0436 121.421 91.9278 120.244 91.8547L114.434 92.1432L114.773 91.8034L47.817 94.4412H47.8166L43.7331 94.5795C43.7338 94.5591 43.7351 94.5391 43.7361 94.519L38.5394 94.6179C38.5377 94.6637 38.535 94.7093 38.5336 94.7551L32.846 94.9471C32.8483 94.873 32.8531 94.7996 32.8555 94.7256L27.658 94.8244C27.6556 94.907 27.6509 94.9888 27.6489 95.0714C25.0617 95.1448 21.7435 95.2582 18.4015 95.425C2.94061 96.1965 2.05772 97.2815 1.20405 98.3305C0.415604 99.299 0.0629926 100.704 0.454669 105.347C0.659849 107.782 1.06477 111.009 1.65823 114.939C2.66137 121.581 3.87853 128.064 3.89076 128.128C4.00388 128.731 4.32592 129.251 4.77161 129.627C5.08073 134.137 5.94222 146.58 6.42901 152.26C6.34341 152.49 6.28702 152.735 6.27003 152.991C6.26629 153.046 5.89432 158.575 5.72651 164.281C5.36133 176.677 6.28769 177.836 6.96404 178.681C7.71512 179.62 8.56608 180.684 25.151 183.931C32.921 185.453 40.5932 186.744 40.6696 186.757C40.6707 186.757 40.6717 186.757 40.6727 186.757L93.8517 196.023C93.8752 196.027 93.8986 196.029 93.922 196.033C93.9455 196.036 93.9682 196.041 93.9917 196.044C94.0644 196.052 101.33 196.91 108.767 197.585C115.484 198.194 119.567 198.41 122.113 198.41C124.721 198.41 125.717 198.184 126.281 197.922C127.977 197.563 133.068 196.363 149.713 192.363C150.631 192.142 151.357 191.44 151.608 190.53C151.622 190.478 151.673 190.282 151.735 189.962L165.235 185.583C165.542 185.582 165.85 185.527 166.144 185.416C171.087 183.548 187.385 177.34 189.611 175.896C191.058 174.958 192.154 173.359 192.008 162.277C191.939 157.003 191.608 151.995 191.594 151.784C191.565 151.344 191.425 150.937 191.206 150.586C191.281 144.088 191.804 129.277 191.958 125.012C191.969 124.955 191.98 124.898 191.986 124.84C192.046 124.299 193.341 112.599 193.55 103.816C196.786 103.763 202.519 103.322 208.729 101.217C221.259 96.9693 229.66 87.9869 233.024 75.2409C236.678 61.396 236.597 49.3519 232.786 39.4417C229.614 31.1958 224.011 24.6419 216.13 19.9608C216.112 19.95 216.094 19.9394 216.077 19.9292C215.622 19.6714 215.121 19.5651 214.633 19.5977L213.627 19.6476C213.543 19.6476 213.459 19.652 213.374 19.6602L155.36 22.5507L150.582 22.7889C150.71 22.3058 156.217 5.06627 156.217 5.06627C156.217 2.3259 154.383 0.0838623 152.141 0.0838623H142.969ZM216.282 26.2569C226.171 33.377 235.049 47.2284 228.006 73.9168C225.081 84.9992 218.089 92.5124 207.223 96.2474C202.24 97.9602 197.515 98.464 194.508 98.591L216.282 26.2569ZM188.137 92.4207L204.155 31.4754L210.537 27.3382L189.898 95.8992L188.137 92.4207ZM80.9301 93.3226L92.1943 92.9421C92.2252 92.9408 92.2555 92.9435 92.286 92.9435L80.9233 93.3375L80.9301 93.3226ZM100.642 114.19C95.7292 109.615 95.0013 101.739 94.9568 97.9395C105.724 97.1256 117.527 96.6537 121.142 97.1286C121.166 97.3899 121.184 97.6969 121.198 98.0377C121.21 99.481 121.203 101.091 121.181 102.795C121.019 108.395 120.471 116.683 119.774 124.706C115.869 123.77 108.122 121.154 100.642 114.19ZM126.373 102.695C126.418 100.976 126.42 99.6023 126.391 98.499C126.389 98.1678 126.387 97.841 126.383 97.5247C130.627 97.8671 138.982 98.5791 145.659 99.1556C145.808 101.671 145.299 106.847 140.22 113.271C138.282 115.722 134.782 118.301 131.348 120.481C130.966 120.611 130.623 120.828 130.342 121.11C128.682 122.132 127.076 123.048 125.712 123.794C125.941 118.589 126.285 109.858 126.373 102.695ZM35.3017 100.057L89.7627 98.2167C89.7841 99.5721 89.884 101.309 90.1656 103.234L35.018 104.337C35.2178 102.695 35.2881 101.224 35.3017 100.057ZM150.453 103.82C150.739 102.338 150.843 101.023 150.846 99.9115L166.233 101.216C166.266 102.303 166.364 103.594 166.583 105.028L150.453 103.82ZM5.46765 101.82C8.81678 101.051 19.8833 100.422 30.1018 100.194C30.0285 104.077 29.2319 111.724 24.42 116.205C17.275 122.858 11.4277 124.538 8.58035 124.948C6.86757 115.51 5.37322 105.14 5.46765 101.82ZM175.657 114.518C172.185 109.336 171.495 103.908 171.423 100.855C178.234 101.505 185.408 102.41 188.374 103.107C188.262 109.238 187.535 117.287 187.119 121.47C183.907 120.676 178.503 118.765 175.657 114.518ZM66.4642 176.229V153.736C70.9969 153.653 72.6869 152.827 73.6527 151.94C74.5464 151.118 74.9799 150.017 74.8732 148.837C74.5393 145.166 75.3774 130.083 75.7286 124.582C75.7724 123.888 75.5363 123.205 75.073 122.687C74.6093 122.168 73.9571 121.858 73.2624 121.825L66.878 121.521L66.8692 108.891L91.3328 108.402C92.4049 111.801 94.1829 115.266 97.1057 117.988C101.75 122.312 106.485 125.136 110.557 126.98C110.217 133.643 109.082 156.9 109.374 164.29C106.762 165.728 104.156 167.59 102.03 169.981C98.8093 173.603 96.5935 177.101 95.0631 180.249L66.4642 176.229ZM143.388 166.756C140.658 163.684 137.006 161.94 133.486 160.961C133.269 154.592 134.123 135.454 134.697 124.491C138.35 122.119 142.071 119.296 144.291 116.489C146.419 113.797 147.879 111.243 148.874 108.906L167.867 110.328C168.635 112.609 169.748 115.021 171.346 117.406C173.375 120.435 176.248 122.54 179.094 123.999C178.886 129.103 178.253 145.047 178.188 151.741C175.718 152.887 173.17 154.581 170.945 157.084C166.487 162.099 164.261 167.266 163.199 171.687L149.21 175.314C147.912 172.639 146.048 169.749 143.388 166.756ZM55.9851 121.002L55.9759 109.109L61.6799 108.994L61.688 121.274L55.9851 121.002ZM40.1424 172.53C38.3739 168.345 35.855 163.819 32.406 160.551C27.6536 156.049 23.0119 153.54 19.1013 152.154C19.0259 145.644 18.5153 131.419 18.3519 126.984C21.2309 125.46 24.4828 123.237 27.9563 120.003C31.1288 117.049 32.9516 113.219 33.9884 109.548L50.787 109.213L50.7951 120.755L46.4809 120.55C45.2454 120.491 44.1404 121.312 43.8404 122.513C41.1907 133.11 43.6886 148.825 43.7963 149.488C43.9729 150.577 44.8188 151.435 45.9045 151.627C46.0335 151.65 47.8075 151.963 50.3936 152.342V173.971L40.1424 172.53ZM57.6785 148.042C54.0906 147.66 50.6759 147.148 48.6618 146.825C48.1519 142.864 47.1681 133.262 48.4437 125.839L70.3892 126.884C70.0828 132.081 69.4655 143.493 69.6415 148.243C69.0344 148.385 67.8669 148.552 65.7363 148.552C63.8754 148.552 61.2794 148.425 57.6785 148.042ZM184.205 126.045C185.136 126.327 185.983 126.54 186.705 126.7C186.512 132.119 186.128 143.367 186.03 149.534C185.256 149.627 184.368 149.77 183.404 149.985C183.527 143.487 183.975 131.805 184.205 126.045ZM124.731 159.765C124.518 151.561 124.625 136.125 124.677 130.202C125.56 129.76 127.261 128.89 129.338 127.721C128.927 136.025 128.174 152.548 128.277 159.981C126.942 159.836 125.732 159.779 124.731 159.765ZM115.652 128.942C117.169 129.423 118.473 129.749 119.488 129.963C119.435 135.868 119.32 151.913 119.557 160.342C118.273 160.664 116.502 161.175 114.511 161.93C114.471 154.711 115.136 139.235 115.652 128.942ZM11.494 150.549C11.0259 144.816 10.3145 134.589 9.99758 129.975C10.9341 129.809 12.0212 129.553 13.2377 129.163C13.4279 134.455 13.7859 144.842 13.8913 150.817C12.9961 150.675 12.1917 150.592 11.494 150.549ZM55.5832 174.7V153.029C56.2569 153.108 56.9444 153.184 57.6391 153.255C58.9606 153.391 60.1662 153.494 61.275 153.571V175.5L55.5832 174.7ZM174.824 160.532C178.553 156.336 183.64 155.078 186.569 154.704C186.945 161.898 186.942 169.606 186.345 171.779C184.126 172.87 175.824 176.169 167.504 179.347C167.467 175.254 168.434 167.72 174.824 160.532ZM11.1094 175.304C10.6359 172.715 10.8149 163.877 11.2966 155.724C14.6203 155.939 21.451 157.322 28.8368 164.319C33.5223 168.758 36.2939 176.409 37.6106 180.967C25.9272 178.923 14.0652 176.493 11.1094 175.304ZM125.051 164.969C128.835 165.066 135.668 165.882 139.51 170.204C146.561 178.137 147.011 184.885 146.807 187.723C140.297 189.287 132.066 191.255 127.768 192.266C127.198 182.531 125.744 170.426 125.051 164.969ZM97.011 191.17C97.4268 187.86 99.1287 181.056 105.908 173.428C109.863 168.979 116.198 166.669 119.803 165.653C120.412 172.062 121.834 186.974 122.477 193.242C122.411 193.242 122.344 193.242 122.274 193.242C117.693 193.242 107.092 192.318 97.011 191.17ZM151.074 180.193L162.367 177.264C162.279 178.756 162.309 180.041 162.379 181.054L151.892 184.455C151.762 183.186 151.511 181.754 151.074 180.193ZM43.2497 181.939C43.0078 180.952 42.6504 179.611 42.162 178.054L93.0704 185.21C92.4195 187.262 92.0696 189.033 91.8876 190.414L43.2497 181.939Z"/>
</mask>
<path d="M142.969 0.0838623C140.727 0.0838623 138.892 2.3259 138.892 5.06627C138.892 5.06627 133.635 22.9142 133.946 23.6174L129.208 23.8535L101.422 25.2378C100.724 25.2724 100.105 25.5816 99.661 26.0548C99.469 26.0517 99.2764 26.05 99.0842 26.0473C99.27 26.0717 100.937 26.2841 107.3 26.9203C114.094 27.5997 120.548 29.6379 120.548 29.6379L123.894 30.6992C122.761 30.2661 121.618 29.8591 120.463 29.4851L204.114 25.3176L201.079 27.2848L124.249 30.8306C124.167 30.7997 124.086 30.7715 124.005 30.7403L134.351 35.5596L198.494 32.5991L183.433 89.9055L168.972 88.4183L169.451 93.6844L183.703 95.1505L184.738 97.1952C183.303 96.9815 181.592 96.7533 179.541 96.509C175.078 95.977 170.74 95.5792 169.508 95.4688L164.37 95.8799L164.23 95.8099C164.23 95.8191 164.23 95.8282 164.23 95.8378L158.537 95.3554C158.537 95.3476 158.537 95.3401 158.537 95.333L153.499 94.8608L153.335 94.8727C153.336 94.8869 153.336 94.9002 153.337 94.9144L153.074 94.892H153.074L149.307 94.5727C148.957 94.3458 148.554 94.1967 148.121 94.1596C123.897 92.0626 123.713 92.0963 123.267 92.1741C123.198 92.1863 123.13 92.2023 123.064 92.2196C122.338 92.0436 121.421 91.9278 120.244 91.8547L114.434 92.1432L114.773 91.8034L47.817 94.4412H47.8166L43.7331 94.5795C43.7338 94.5591 43.7351 94.5391 43.7361 94.519L38.5394 94.6179C38.5377 94.6637 38.535 94.7093 38.5336 94.7551L32.846 94.9471C32.8483 94.873 32.8531 94.7996 32.8555 94.7256L27.658 94.8244C27.6556 94.907 27.6509 94.9888 27.6489 95.0714C25.0617 95.1448 21.7435 95.2582 18.4015 95.425C2.94061 96.1965 2.05772 97.2815 1.20405 98.3305C0.415604 99.299 0.0629926 100.704 0.454669 105.347C0.659849 107.782 1.06477 111.009 1.65823 114.939C2.66137 121.581 3.87853 128.064 3.89076 128.128C4.00388 128.731 4.32592 129.251 4.77161 129.627C5.08073 134.137 5.94222 146.58 6.42901 152.26C6.34341 152.49 6.28702 152.735 6.27003 152.991C6.26629 153.046 5.89432 158.575 5.72651 164.281C5.36133 176.677 6.28769 177.836 6.96404 178.681C7.71512 179.62 8.56608 180.684 25.151 183.931C32.921 185.453 40.5932 186.744 40.6696 186.757C40.6707 186.757 40.6717 186.757 40.6727 186.757L93.8517 196.023C93.8752 196.027 93.8986 196.029 93.922 196.033C93.9455 196.036 93.9682 196.041 93.9917 196.044C94.0644 196.052 101.33 196.91 108.767 197.585C115.484 198.194 119.567 198.41 122.113 198.41C124.721 198.41 125.717 198.184 126.281 197.922C127.977 197.563 133.068 196.363 149.713 192.363C150.631 192.142 151.357 191.44 151.608 190.53C151.622 190.478 151.673 190.282 151.735 189.962L165.235 185.583C165.542 185.582 165.85 185.527 166.144 185.416C171.087 183.548 187.385 177.34 189.611 175.896C191.058 174.958 192.154 173.359 192.008 162.277C191.939 157.003 191.608 151.995 191.594 151.784C191.565 151.344 191.425 150.937 191.206 150.586C191.281 144.088 191.804 129.277 191.958 125.012C191.969 124.955 191.98 124.898 191.986 124.84C192.046 124.299 193.341 112.599 193.55 103.816C196.786 103.763 202.519 103.322 208.729 101.217C221.259 96.9693 229.66 87.9869 233.024 75.2409C236.678 61.396 236.597 49.3519 232.786 39.4417C229.614 31.1958 224.011 24.6419 216.13 19.9608C216.112 19.95 216.094 19.9394 216.077 19.9292C215.622 19.6714 215.121 19.5651 214.633 19.5977L213.627 19.6476C213.543 19.6476 213.459 19.652 213.374 19.6602L155.36 22.5507L150.582 22.7889C150.71 22.3058 156.217 5.06627 156.217 5.06627C156.217 2.3259 154.383 0.0838623 152.141 0.0838623H142.969ZM216.282 26.2569C226.171 33.377 235.049 47.2284 228.006 73.9168C225.081 84.9992 218.089 92.5124 207.223 96.2474C202.24 97.9602 197.515 98.464 194.508 98.591L216.282 26.2569ZM188.137 92.4207L204.155 31.4754L210.537 27.3382L189.898 95.8992L188.137 92.4207ZM80.9301 93.3226L92.1943 92.9421C92.2252 92.9408 92.2555 92.9435 92.286 92.9435L80.9233 93.3375L80.9301 93.3226ZM100.642 114.19C95.7292 109.615 95.0013 101.739 94.9568 97.9395C105.724 97.1256 117.527 96.6537 121.142 97.1286C121.166 97.3899 121.184 97.6969 121.198 98.0377C121.21 99.481 121.203 101.091 121.181 102.795C121.019 108.395 120.471 116.683 119.774 124.706C115.869 123.77 108.122 121.154 100.642 114.19ZM126.373 102.695C126.418 100.976 126.42 99.6023 126.391 98.499C126.389 98.1678 126.387 97.841 126.383 97.5247C130.627 97.8671 138.982 98.5791 145.659 99.1556C145.808 101.671 145.299 106.847 140.22 113.271C138.282 115.722 134.782 118.301 131.348 120.481C130.966 120.611 130.623 120.828 130.342 121.11C128.682 122.132 127.076 123.048 125.712 123.794C125.941 118.589 126.285 109.858 126.373 102.695ZM35.3017 100.057L89.7627 98.2167C89.7841 99.5721 89.884 101.309 90.1656 103.234L35.018 104.337C35.2178 102.695 35.2881 101.224 35.3017 100.057ZM150.453 103.82C150.739 102.338 150.843 101.023 150.846 99.9115L166.233 101.216C166.266 102.303 166.364 103.594 166.583 105.028L150.453 103.82ZM5.46765 101.82C8.81678 101.051 19.8833 100.422 30.1018 100.194C30.0285 104.077 29.2319 111.724 24.42 116.205C17.275 122.858 11.4277 124.538 8.58035 124.948C6.86757 115.51 5.37322 105.14 5.46765 101.82ZM175.657 114.518C172.185 109.336 171.495 103.908 171.423 100.855C178.234 101.505 185.408 102.41 188.374 103.107C188.262 109.238 187.535 117.287 187.119 121.47C183.907 120.676 178.503 118.765 175.657 114.518ZM66.4642 176.229V153.736C70.9969 153.653 72.6869 152.827 73.6527 151.94C74.5464 151.118 74.9799 150.017 74.8732 148.837C74.5393 145.166 75.3774 130.083 75.7286 124.582C75.7724 123.888 75.5363 123.205 75.073 122.687C74.6093 122.168 73.9571 121.858 73.2624 121.825L66.878 121.521L66.8692 108.891L91.3328 108.402C92.4049 111.801 94.1829 115.266 97.1057 117.988C101.75 122.312 106.485 125.136 110.557 126.98C110.217 133.643 109.082 156.9 109.374 164.29C106.762 165.728 104.156 167.59 102.03 169.981C98.8093 173.603 96.5935 177.101 95.0631 180.249L66.4642 176.229ZM143.388 166.756C140.658 163.684 137.006 161.94 133.486 160.961C133.269 154.592 134.123 135.454 134.697 124.491C138.35 122.119 142.071 119.296 144.291 116.489C146.419 113.797 147.879 111.243 148.874 108.906L167.867 110.328C168.635 112.609 169.748 115.021 171.346 117.406C173.375 120.435 176.248 122.54 179.094 123.999C178.886 129.103 178.253 145.047 178.188 151.741C175.718 152.887 173.17 154.581 170.945 157.084C166.487 162.099 164.261 167.266 163.199 171.687L149.21 175.314C147.912 172.639 146.048 169.749 143.388 166.756ZM55.9851 121.002L55.9759 109.109L61.6799 108.994L61.688 121.274L55.9851 121.002ZM40.1424 172.53C38.3739 168.345 35.855 163.819 32.406 160.551C27.6536 156.049 23.0119 153.54 19.1013 152.154C19.0259 145.644 18.5153 131.419 18.3519 126.984C21.2309 125.46 24.4828 123.237 27.9563 120.003C31.1288 117.049 32.9516 113.219 33.9884 109.548L50.787 109.213L50.7951 120.755L46.4809 120.55C45.2454 120.491 44.1404 121.312 43.8404 122.513C41.1907 133.11 43.6886 148.825 43.7963 149.488C43.9729 150.577 44.8188 151.435 45.9045 151.627C46.0335 151.65 47.8075 151.963 50.3936 152.342V173.971L40.1424 172.53ZM57.6785 148.042C54.0906 147.66 50.6759 147.148 48.6618 146.825C48.1519 142.864 47.1681 133.262 48.4437 125.839L70.3892 126.884C70.0828 132.081 69.4655 143.493 69.6415 148.243C69.0344 148.385 67.8669 148.552 65.7363 148.552C63.8754 148.552 61.2794 148.425 57.6785 148.042ZM184.205 126.045C185.136 126.327 185.983 126.54 186.705 126.7C186.512 132.119 186.128 143.367 186.03 149.534C185.256 149.627 184.368 149.77 183.404 149.985C183.527 143.487 183.975 131.805 184.205 126.045ZM124.731 159.765C124.518 151.561 124.625 136.125 124.677 130.202C125.56 129.76 127.261 128.89 129.338 127.721C128.927 136.025 128.174 152.548 128.277 159.981C126.942 159.836 125.732 159.779 124.731 159.765ZM115.652 128.942C117.169 129.423 118.473 129.749 119.488 129.963C119.435 135.868 119.32 151.913 119.557 160.342C118.273 160.664 116.502 161.175 114.511 161.93C114.471 154.711 115.136 139.235 115.652 128.942ZM11.494 150.549C11.0259 144.816 10.3145 134.589 9.99758 129.975C10.9341 129.809 12.0212 129.553 13.2377 129.163C13.4279 134.455 13.7859 144.842 13.8913 150.817C12.9961 150.675 12.1917 150.592 11.494 150.549ZM55.5832 174.7V153.029C56.2569 153.108 56.9444 153.184 57.6391 153.255C58.9606 153.391 60.1662 153.494 61.275 153.571V175.5L55.5832 174.7ZM174.824 160.532C178.553 156.336 183.64 155.078 186.569 154.704C186.945 161.898 186.942 169.606 186.345 171.779C184.126 172.87 175.824 176.169 167.504 179.347C167.467 175.254 168.434 167.72 174.824 160.532ZM11.1094 175.304C10.6359 172.715 10.8149 163.877 11.2966 155.724C14.6203 155.939 21.451 157.322 28.8368 164.319C33.5223 168.758 36.2939 176.409 37.6106 180.967C25.9272 178.923 14.0652 176.493 11.1094 175.304ZM125.051 164.969C128.835 165.066 135.668 165.882 139.51 170.204C146.561 178.137 147.011 184.885 146.807 187.723C140.297 189.287 132.066 191.255 127.768 192.266C127.198 182.531 125.744 170.426 125.051 164.969ZM97.011 191.17C97.4268 187.86 99.1287 181.056 105.908 173.428C109.863 168.979 116.198 166.669 119.803 165.653C120.412 172.062 121.834 186.974 122.477 193.242C122.411 193.242 122.344 193.242 122.274 193.242C117.693 193.242 107.092 192.318 97.011 191.17ZM151.074 180.193L162.367 177.264C162.279 178.756 162.309 180.041 162.379 181.054L151.892 184.455C151.762 183.186 151.511 181.754 151.074 180.193ZM43.2497 181.939C43.0078 180.952 42.6504 179.611 42.162 178.054L93.0704 185.21C92.4195 187.262 92.0696 189.033 91.8876 190.414L43.2497 181.939Z" fill="#F3CF89" stroke="#18172A" stroke-width="2.90651" mask="url(#path-6-inside-1)"/>
<defs>
<filter id="filter0_d" x="17.9698" y="16.3524" width="161.227" height="89.2158" filterUnits="userSpaceOnUse" color-interpolation-filters="sRGB">
<feFlood flood-opacity="0" result="BackgroundImageFix"/>
<feColorMatrix in="SourceAlpha" type="matrix" values="0 0 0 0 0 0 0 0 0 0 0 0 0 0 0 0 0 0 127 0" result="hardAlpha"/>
<feOffset/>
<feGaussianBlur stdDeviation="4.84419"/>
<feColorMatrix type="matrix" values="0 0 0 0 0.921569 0 0 0 0 0 0 0 0 0 1 0 0 0 1 0"/>
<feBlend mode="normal" in2="BackgroundImageFix" result="effect1_dropShadow"/>
<feBlend mode="normal" in="SourceGraphic" in2="effect1_dropShadow" result="shape"/>
</filter>
<filter id="filter1_d" x="54.2941" y="41.3385" width="85.824" height="61.8752" filterUnits="userSpaceOnUse" color-interpolation-filters="sRGB">
<feFlood flood-opacity="0" result="BackgroundImageFix"/>
<feColorMatrix in="SourceAlpha" type="matrix" values="0 0 0 0 0 0 0 0 0 0 0 0 0 0 0 0 0 0 127 0" result="hardAlpha"/>
<feOffset/>
<feGaussianBlur stdDeviation="4.84419"/>
<feColorMatrix type="matrix" values="0 0 0 0 0.921569 0 0 0 0 0 0 0 0 0 1 0 0 0 1 0"/>
<feBlend mode="normal" in2="BackgroundImageFix" result="effect1_dropShadow"/>
<feBlend mode="normal" in="SourceGraphic" in2="effect1_dropShadow" result="shape"/>
</filter>
<filter id="filter2_d" x="28.8507" y="26.8302" width="139.374" height="78.1908" filterUnits="userSpaceOnUse" color-interpolation-filters="sRGB">
<feFlood flood-opacity="0" result="BackgroundImageFix"/>
<feColorMatrix in="SourceAlpha" type="matrix" values="0 0 0 0 0 0 0 0 0 0 0 0 0 0 0 0 0 0 127 0" result="hardAlpha"/>
<feOffset/>
<feGaussianBlur stdDeviation="4.84419"/>
<feColorMatrix type="matrix" values="0 0 0 0 0.921569 0 0 0 0 0 0 0 0 0 1 0 0 0 1 0"/>
<feBlend mode="normal" in2="BackgroundImageFix" result="effect1_dropShadow"/>
<feBlend mode="normal" in="SourceGraphic" in2="effect1_dropShadow" result="shape"/>
</filter>
<linearGradient id="paint0_linear" x1="-60.1369" y1="52.1233" x2="421.12" y2="186.648" gradientUnits="userSpaceOnUse">
<stop stop-color="#301402"/>
<stop offset="0.38324" stop-color="#FFE589"/>
<stop offset="1" stop-color="#1D0500"/>
</linearGradient>
</defs>
</svg>
