<svg width="360" height="304" viewBox="0 0 360 304" fill="none" xmlns="http://www.w3.org/2000/svg">
<g filter="url(#filter0_d)">
<path d="M74.0986 71.9344C54.428 91.6061 43.2691 117.518 42.4609 145.206L50.392 145.055C52.1856 91.3241 96.4467 48.1635 150.607 48.1635C162.988 48.1635 174.85 50.4251 185.807 54.5467C186.487 55.1485 187.372 55.5176 188.338 55.5388C224.48 70.2704 250.16 105.5 250.863 146.709L251.077 146.816L258.917 146.189C258.868 146.184 258.82 146.18 258.777 146.176C258.758 145.266 258.728 144.358 258.688 143.451L258.831 143.466L258.101 135.43L258.03 135.422C255.173 111.451 244.449 89.2698 227.114 71.9344C220.372 65.193 212.893 59.4577 204.865 54.7888L205.27 54.7701L189.482 47.416C189.425 47.3942 189.369 47.3745 189.312 47.3533L184.207 45.7339C184.207 45.7339 174.358 42.6236 163.991 41.5869C154.281 40.616 151.738 40.292 151.454 40.2547C151.172 40.2511 150.89 40.2449 150.607 40.2449C121.706 40.2449 94.5349 51.4992 74.0986 71.9344Z" fill="#EB00FF"/>
</g>
<g filter="url(#filter1_d)">
<path d="M145.078 80.5013L131.708 106.126L102.67 99.9832C101.221 99.6779 99.7224 100.205 98.7852 101.351C97.8474 102.498 97.6282 104.071 98.2165 105.43L114.575 143.224L123.08 142.937L108.527 109.317L133.01 114.496C134.748 114.863 136.518 114.028 137.34 112.454L148.589 90.8925L159.837 112.454C160.659 114.028 162.428 114.861 164.167 114.496L188.613 109.325L174.876 141.114L183.547 140.661L198.954 105.445C199.549 104.085 199.334 102.507 198.397 101.357C197.46 100.207 195.959 99.6784 194.507 99.9832L165.468 106.126L152.099 80.5013C151.416 79.1939 150.063 78.3734 148.589 78.3734C147.113 78.3734 145.76 79.1939 145.078 80.5013Z" fill="#EB00FF"/>
</g>
<g filter="url(#filter2_d)">
<path d="M59.0645 144.891L66.9945 144.74C68.6253 100.027 105.502 64.1533 150.606 64.1533C195.891 64.1533 232.886 100.315 234.238 145.279L234.488 145.261L242.175 145.982C241.188 96.3254 200.493 56.2341 150.606 56.2341C101.084 56.2341 60.6216 95.7396 59.0645 144.891Z" fill="#EB00FF"/>
</g>
<path d="M79.0803 198.834C76.5776 201.188 75.3086 204.511 75.3086 208.71C75.3086 213.653 77.394 216.544 79.1435 218.099C82.291 220.899 86.3882 221.332 88.6214 221.332C89.4363 221.332 90.0039 221.274 90.1853 221.253C92.3568 220.997 93.9248 219.028 93.6693 216.856C93.4142 214.685 91.4621 213.13 89.289 213.385C88.4617 213.471 85.7833 213.427 84.3879 212.166C84.1007 211.908 83.2272 211.119 83.2272 208.71C83.2272 206.782 83.6575 205.399 84.506 204.602C85.0524 204.087 86.4007 203.252 89.2911 203.429C89.4969 203.442 89.6431 203.445 89.7224 203.445C91.9094 203.445 93.6817 201.673 93.6817 199.486C93.6817 197.337 91.9706 195.589 89.837 195.528L89.7748 195.524C89.3383 195.497 88.9148 195.484 88.5053 195.484C83.6958 195.484 80.7437 197.269 79.0803 198.834ZM89.7224 195.526H89.7266C89.7483 195.526 89.7748 195.527 89.8059 195.528C89.7784 195.527 89.7504 195.526 89.7224 195.526Z" fill="#F3CF89"/>
<path d="M140.94 142.334L123.752 142.914L123.741 142.937L141.08 142.335C141.043 142.335 141.006 142.333 140.968 142.333C140.959 142.333 140.95 142.333 140.94 142.334Z" fill="url(#paint0_linear)"/>
<mask id="path-6-inside-1" fill="white">
<path d="M218.42 0.635681C214.999 0.635681 212.199 4.05695 212.199 8.23865C212.199 8.23865 204.176 35.4738 204.652 36.5468L197.422 36.9071L155.022 39.0195C153.955 39.0724 153.011 39.5441 152.334 40.2662C152.041 40.2615 151.747 40.2589 151.454 40.2548C151.737 40.2921 154.28 40.6161 163.99 41.587C174.358 42.6237 184.207 45.7339 184.207 45.7339L189.312 47.3533C187.584 46.6924 185.839 46.0714 184.077 45.5007L311.725 39.1413L307.093 42.1432L189.854 47.5539C189.73 47.5068 189.605 47.4637 189.481 47.416L205.27 54.7702L303.149 50.2526L280.166 137.7L258.1 135.43L258.831 143.466L280.578 145.703L282.158 148.823C279.968 148.497 277.358 148.149 274.227 147.776C267.416 146.964 260.798 146.357 258.917 146.189L251.077 146.816L250.863 146.709C250.863 146.723 250.864 146.737 250.864 146.752L242.177 146.016C242.177 146.004 242.176 145.993 242.176 145.982L234.489 145.261L234.238 145.279C234.239 145.301 234.24 145.321 234.241 145.343L233.84 145.309L228.091 144.822C227.558 144.475 226.943 144.248 226.282 144.191C189.317 140.991 189.037 141.043 188.355 141.161C188.25 141.18 188.147 141.204 188.045 141.231C186.938 140.962 185.538 140.785 183.742 140.674L174.876 141.114L175.395 140.596L73.2222 144.621L66.9903 144.832C66.9913 144.801 66.9934 144.77 66.995 144.74L59.0649 144.89C59.0623 144.96 59.0582 145.03 59.0561 145.1L50.377 145.393C50.3807 145.28 50.3879 145.168 50.3916 145.055L42.4605 145.206C42.4569 145.332 42.4496 145.457 42.4465 145.582C38.4986 145.694 33.4351 145.868 28.3354 146.122C4.7428 147.299 3.39555 148.955 2.09289 150.556C0.889747 152.034 0.351678 154.178 0.949359 161.263C1.26246 164.978 1.88035 169.902 2.78595 175.899C4.3167 186.035 6.17402 195.928 6.19268 196.026C6.3653 196.945 6.85671 197.739 7.53682 198.313C8.00853 205.196 9.32312 224.182 10.0659 232.85C9.93532 233.201 9.84926 233.575 9.82335 233.965C9.81764 234.049 9.25003 242.487 8.99395 251.194C8.43671 270.11 9.8503 271.877 10.8824 273.168C12.0285 274.6 13.327 276.223 38.6349 281.178C50.4916 283.5 62.199 285.471 62.3156 285.49L62.3203 285.491L143.469 299.631C143.505 299.637 143.541 299.64 143.576 299.645C143.612 299.65 143.647 299.658 143.683 299.662C143.794 299.675 154.881 300.984 166.229 302.014C176.48 302.944 182.709 303.273 186.595 303.273C190.574 303.273 192.095 302.928 192.955 302.529C195.543 301.98 203.311 300.149 228.711 294.045C230.111 293.708 231.219 292.638 231.603 291.249C231.625 291.168 231.703 290.87 231.796 290.381L252.397 283.699C252.866 283.698 253.336 283.614 253.785 283.444C261.326 280.593 286.196 271.121 289.593 268.918C291.801 267.486 293.474 265.046 293.251 248.136C293.146 240.088 292.641 232.445 292.619 232.123C292.575 231.453 292.361 230.832 292.027 230.295C292.142 220.379 292.94 197.778 293.175 191.271C293.191 191.183 293.208 191.096 293.218 191.008C293.31 190.183 295.286 172.329 295.604 158.927C300.542 158.846 309.29 158.173 318.767 154.96C337.887 148.479 350.707 134.772 355.84 115.322C361.415 94.1953 361.292 75.8165 355.477 60.6941C350.637 48.1112 342.087 38.1102 330.061 30.9671C330.033 30.9505 330.006 30.9344 329.979 30.9189C329.285 30.5254 328.52 30.3632 327.776 30.413L326.242 30.4892C326.113 30.4892 325.984 30.4959 325.855 30.5083L237.327 34.9192L230.037 35.2826C230.233 34.5454 238.636 8.23865 238.636 8.23865C238.636 4.05695 235.837 0.635681 232.416 0.635681H218.42ZM330.293 40.5746C345.382 51.4396 358.93 72.5762 348.183 113.301C343.72 130.213 333.05 141.678 316.469 147.377C308.864 149.991 301.654 150.759 297.067 150.953L330.293 40.5746ZM287.345 141.538L311.788 48.5378L321.526 42.2245L290.032 146.846L287.345 141.538ZM123.751 142.914L140.94 142.333C140.987 142.331 141.033 142.335 141.08 142.335L123.741 142.937L123.751 142.914ZM153.831 174.756C146.334 167.775 145.223 155.758 145.155 149.959C161.585 148.717 179.596 147.997 185.113 148.722C185.15 149.12 185.177 149.589 185.199 150.109C185.217 152.311 185.206 154.768 185.172 157.369C184.925 165.914 184.089 178.561 183.026 190.804C177.066 189.376 165.244 185.384 153.831 174.756ZM193.096 157.215C193.163 154.592 193.167 152.497 193.123 150.813C193.12 150.307 193.116 149.809 193.111 149.326C199.586 149.849 212.335 150.935 222.525 151.815C222.752 155.654 221.975 163.552 214.226 173.354C211.268 177.094 205.927 181.03 200.687 184.357C200.103 184.554 199.58 184.886 199.152 185.317C196.619 186.876 194.168 188.273 192.087 189.412C192.437 181.469 192.962 168.146 193.096 157.215ZM54.1243 153.19L137.23 150.382C137.262 152.45 137.415 155.101 137.844 158.039L53.6915 159.722C53.9963 157.216 54.1036 154.971 54.1243 153.19ZM229.84 158.933C230.277 156.67 230.435 154.664 230.44 152.968L253.921 154.959C253.97 156.618 254.119 158.587 254.453 160.776L229.84 158.933ZM8.59895 155.88C13.7096 154.708 30.5965 153.747 46.1896 153.4C46.0777 159.325 44.8621 170.994 37.5194 177.831C26.6165 187.984 17.6938 190.547 13.3488 191.173C10.7352 176.77 8.45485 160.946 8.59895 155.88ZM268.301 175.257C263.002 167.349 261.95 159.067 261.839 154.408C272.233 155.399 283.18 156.78 287.706 157.845C287.536 167.2 286.425 179.483 285.791 185.865C280.89 184.654 272.644 181.738 268.301 175.257ZM101.677 269.426V235.102C108.594 234.976 111.173 233.714 112.646 232.361C114.01 231.107 114.672 229.427 114.509 227.627C113.999 222.025 115.278 199.009 115.814 190.614C115.881 189.555 115.521 188.513 114.814 187.723C114.106 186.931 113.111 186.458 112.051 186.407L102.308 185.943L102.295 166.67L139.625 165.924C141.261 171.111 143.975 176.399 148.435 180.552C155.521 187.151 162.747 191.46 168.96 194.273C168.442 204.441 166.71 239.93 167.155 251.207C163.17 253.402 159.192 256.242 155.948 259.891C151.034 265.419 147.653 270.757 145.318 275.56L101.677 269.426ZM219.06 254.97C214.893 250.282 209.321 247.621 203.949 246.128C203.619 236.408 204.922 207.205 205.797 190.475C211.371 186.856 217.05 182.549 220.437 178.265C223.684 174.157 225.912 170.26 227.431 166.693L256.413 168.864C257.586 172.344 259.283 176.024 261.722 179.665C264.819 184.286 269.202 187.499 273.544 189.724C273.227 197.513 272.262 221.844 272.162 232.057C268.393 233.807 264.506 236.391 261.11 240.211C254.307 247.864 250.91 255.748 249.29 262.495L227.943 268.03C225.963 263.948 223.119 259.537 219.06 254.97ZM85.6864 185.152L85.6724 167.003L94.3764 166.828L94.3888 185.566L85.6864 185.152ZM61.5111 263.78C58.8125 257.395 54.9688 250.488 49.7057 245.502C42.4537 238.632 35.3707 234.802 29.4032 232.688C29.2882 222.754 28.5091 201.048 28.2597 194.28C32.6529 191.954 37.6153 188.562 42.9156 183.627C47.7567 179.12 50.5383 173.274 52.1203 167.673L77.7543 167.161L77.7667 184.775L71.1834 184.461C69.2981 184.372 67.6118 185.625 67.1541 187.456C63.1108 203.628 66.9224 227.607 67.0867 228.62C67.3563 230.281 68.647 231.591 70.3037 231.884C70.5007 231.919 73.2076 232.397 77.154 232.976V265.979L61.5111 263.78ZM88.2705 226.413C82.7954 225.83 77.5848 225.049 74.5114 224.557C73.7333 218.512 72.2321 203.859 74.1786 192.532L107.666 194.127C107.199 202.057 106.257 219.472 106.525 226.72C105.599 226.937 103.817 227.192 100.566 227.192C97.7266 227.192 93.7652 226.998 88.2705 226.413ZM281.344 192.847C282.765 193.277 284.058 193.602 285.159 193.846C284.865 202.116 284.279 219.28 284.13 228.69C282.949 228.832 281.594 229.051 280.122 229.379C280.31 219.462 280.994 201.636 281.344 192.847ZM190.59 244.302C190.265 231.783 190.428 208.228 190.507 199.19C191.855 198.516 194.45 197.188 197.619 195.405C196.993 208.075 195.843 233.289 196.001 244.631C193.964 244.411 192.117 244.323 190.59 244.302ZM176.736 197.267C179.051 198.002 181.041 198.499 182.59 198.826C182.508 207.836 182.332 232.32 182.695 245.182C180.735 245.675 178.033 246.454 174.995 247.606C174.933 236.59 175.948 212.974 176.736 197.267ZM17.7949 230.239C17.0805 221.49 15.9951 205.885 15.5114 198.844C16.9406 198.591 18.5994 198.2 20.4557 197.605C20.7459 205.681 21.2923 221.531 21.453 230.647C20.0871 230.43 18.8596 230.305 17.7949 230.239ZM85.0732 267.092V234.023C86.1011 234.144 87.1503 234.26 88.2103 234.369C90.2268 234.576 92.0665 234.733 93.7585 234.851V268.313L85.0732 267.092ZM267.029 245.473C272.72 239.07 280.482 237.15 284.951 236.579C285.526 247.557 285.521 259.32 284.61 262.634C281.224 264.3 268.556 269.334 255.86 274.184C255.803 267.937 257.278 256.441 267.029 245.473ZM17.2081 268.014C16.4854 264.064 16.7586 250.577 17.4937 238.135C22.5654 238.464 32.9888 240.574 44.2592 251.251C51.4091 258.024 55.6385 269.701 57.6477 276.655C39.8194 273.537 21.7184 269.829 17.2081 268.014ZM191.078 252.242C196.852 252.391 207.279 253.636 213.142 260.232C223.902 272.337 224.588 282.635 224.276 286.966C214.342 289.351 201.783 292.354 195.223 293.897C194.353 279.042 192.135 260.57 191.078 252.242ZM148.29 292.225C148.925 287.173 151.522 276.791 161.867 265.151C167.902 258.363 177.569 254.837 183.07 253.286C183.999 263.067 186.168 285.822 187.151 295.386C187.049 295.387 186.946 295.387 186.84 295.387C179.85 295.387 163.674 293.977 148.29 292.225ZM230.787 275.474L248.021 271.005C247.886 273.282 247.932 275.243 248.039 276.788L232.036 281.978C231.837 280.042 231.455 277.857 230.787 275.474ZM66.2527 278.138C65.8836 276.632 65.3383 274.586 64.5928 272.21L142.277 283.13C141.284 286.262 140.75 288.964 140.472 291.07L66.2527 278.138Z"/>
</mask>
<path d="M218.42 0.635681C214.999 0.635681 212.199 4.05695 212.199 8.23865C212.199 8.23865 204.176 35.4738 204.652 36.5468L197.422 36.9071L155.022 39.0195C153.955 39.0724 153.011 39.5441 152.334 40.2662C152.041 40.2615 151.747 40.2589 151.454 40.2548C151.737 40.2921 154.28 40.6161 163.99 41.587C174.358 42.6237 184.207 45.7339 184.207 45.7339L189.312 47.3533C187.584 46.6924 185.839 46.0714 184.077 45.5007L311.725 39.1413L307.093 42.1432L189.854 47.5539C189.73 47.5068 189.605 47.4637 189.481 47.416L205.27 54.7702L303.149 50.2526L280.166 137.7L258.1 135.43L258.831 143.466L280.578 145.703L282.158 148.823C279.968 148.497 277.358 148.149 274.227 147.776C267.416 146.964 260.798 146.357 258.917 146.189L251.077 146.816L250.863 146.709C250.863 146.723 250.864 146.737 250.864 146.752L242.177 146.016C242.177 146.004 242.176 145.993 242.176 145.982L234.489 145.261L234.238 145.279C234.239 145.301 234.24 145.321 234.241 145.343L233.84 145.309L228.091 144.822C227.558 144.475 226.943 144.248 226.282 144.191C189.317 140.991 189.037 141.043 188.355 141.161C188.25 141.18 188.147 141.204 188.045 141.231C186.938 140.962 185.538 140.785 183.742 140.674L174.876 141.114L175.395 140.596L73.2222 144.621L66.9903 144.832C66.9913 144.801 66.9934 144.77 66.995 144.74L59.0649 144.89C59.0623 144.96 59.0582 145.03 59.0561 145.1L50.377 145.393C50.3807 145.28 50.3879 145.168 50.3916 145.055L42.4605 145.206C42.4569 145.332 42.4496 145.457 42.4465 145.582C38.4986 145.694 33.4351 145.868 28.3354 146.122C4.7428 147.299 3.39555 148.955 2.09289 150.556C0.889747 152.034 0.351678 154.178 0.949359 161.263C1.26246 164.978 1.88035 169.902 2.78595 175.899C4.3167 186.035 6.17402 195.928 6.19268 196.026C6.3653 196.945 6.85671 197.739 7.53682 198.313C8.00853 205.196 9.32312 224.182 10.0659 232.85C9.93532 233.201 9.84926 233.575 9.82335 233.965C9.81764 234.049 9.25003 242.487 8.99395 251.194C8.43671 270.11 9.8503 271.877 10.8824 273.168C12.0285 274.6 13.327 276.223 38.6349 281.178C50.4916 283.5 62.199 285.471 62.3156 285.49L62.3203 285.491L143.469 299.631C143.505 299.637 143.541 299.64 143.576 299.645C143.612 299.65 143.647 299.658 143.683 299.662C143.794 299.675 154.881 300.984 166.229 302.014C176.48 302.944 182.709 303.273 186.595 303.273C190.574 303.273 192.095 302.928 192.955 302.529C195.543 301.98 203.311 300.149 228.711 294.045C230.111 293.708 231.219 292.638 231.603 291.249C231.625 291.168 231.703 290.87 231.796 290.381L252.397 283.699C252.866 283.698 253.336 283.614 253.785 283.444C261.326 280.593 286.196 271.121 289.593 268.918C291.801 267.486 293.474 265.046 293.251 248.136C293.146 240.088 292.641 232.445 292.619 232.123C292.575 231.453 292.361 230.832 292.027 230.295C292.142 220.379 292.94 197.778 293.175 191.271C293.191 191.183 293.208 191.096 293.218 191.008C293.31 190.183 295.286 172.329 295.604 158.927C300.542 158.846 309.29 158.173 318.767 154.96C337.887 148.479 350.707 134.772 355.84 115.322C361.415 94.1953 361.292 75.8165 355.477 60.6941C350.637 48.1112 342.087 38.1102 330.061 30.9671C330.033 30.9505 330.006 30.9344 329.979 30.9189C329.285 30.5254 328.52 30.3632 327.776 30.413L326.242 30.4892C326.113 30.4892 325.984 30.4959 325.855 30.5083L237.327 34.9192L230.037 35.2826C230.233 34.5454 238.636 8.23865 238.636 8.23865C238.636 4.05695 235.837 0.635681 232.416 0.635681H218.42ZM330.293 40.5746C345.382 51.4396 358.93 72.5762 348.183 113.301C343.72 130.213 333.05 141.678 316.469 147.377C308.864 149.991 301.654 150.759 297.067 150.953L330.293 40.5746ZM287.345 141.538L311.788 48.5378L321.526 42.2245L290.032 146.846L287.345 141.538ZM123.751 142.914L140.94 142.333C140.987 142.331 141.033 142.335 141.08 142.335L123.741 142.937L123.751 142.914ZM153.831 174.756C146.334 167.775 145.223 155.758 145.155 149.959C161.585 148.717 179.596 147.997 185.113 148.722C185.15 149.12 185.177 149.589 185.199 150.109C185.217 152.311 185.206 154.768 185.172 157.369C184.925 165.914 184.089 178.561 183.026 190.804C177.066 189.376 165.244 185.384 153.831 174.756ZM193.096 157.215C193.163 154.592 193.167 152.497 193.123 150.813C193.12 150.307 193.116 149.809 193.111 149.326C199.586 149.849 212.335 150.935 222.525 151.815C222.752 155.654 221.975 163.552 214.226 173.354C211.268 177.094 205.927 181.03 200.687 184.357C200.103 184.554 199.58 184.886 199.152 185.317C196.619 186.876 194.168 188.273 192.087 189.412C192.437 181.469 192.962 168.146 193.096 157.215ZM54.1243 153.19L137.23 150.382C137.262 152.45 137.415 155.101 137.844 158.039L53.6915 159.722C53.9963 157.216 54.1036 154.971 54.1243 153.19ZM229.84 158.933C230.277 156.67 230.435 154.664 230.44 152.968L253.921 154.959C253.97 156.618 254.119 158.587 254.453 160.776L229.84 158.933ZM8.59895 155.88C13.7096 154.708 30.5965 153.747 46.1896 153.4C46.0777 159.325 44.8621 170.994 37.5194 177.831C26.6165 187.984 17.6938 190.547 13.3488 191.173C10.7352 176.77 8.45485 160.946 8.59895 155.88ZM268.301 175.257C263.002 167.349 261.95 159.067 261.839 154.408C272.233 155.399 283.18 156.78 287.706 157.845C287.536 167.2 286.425 179.483 285.791 185.865C280.89 184.654 272.644 181.738 268.301 175.257ZM101.677 269.426V235.102C108.594 234.976 111.173 233.714 112.646 232.361C114.01 231.107 114.672 229.427 114.509 227.627C113.999 222.025 115.278 199.009 115.814 190.614C115.881 189.555 115.521 188.513 114.814 187.723C114.106 186.931 113.111 186.458 112.051 186.407L102.308 185.943L102.295 166.67L139.625 165.924C141.261 171.111 143.975 176.399 148.435 180.552C155.521 187.151 162.747 191.46 168.96 194.273C168.442 204.441 166.71 239.93 167.155 251.207C163.17 253.402 159.192 256.242 155.948 259.891C151.034 265.419 147.653 270.757 145.318 275.56L101.677 269.426ZM219.06 254.97C214.893 250.282 209.321 247.621 203.949 246.128C203.619 236.408 204.922 207.205 205.797 190.475C211.371 186.856 217.05 182.549 220.437 178.265C223.684 174.157 225.912 170.26 227.431 166.693L256.413 168.864C257.586 172.344 259.283 176.024 261.722 179.665C264.819 184.286 269.202 187.499 273.544 189.724C273.227 197.513 272.262 221.844 272.162 232.057C268.393 233.807 264.506 236.391 261.11 240.211C254.307 247.864 250.91 255.748 249.29 262.495L227.943 268.03C225.963 263.948 223.119 259.537 219.06 254.97ZM85.6864 185.152L85.6724 167.003L94.3764 166.828L94.3888 185.566L85.6864 185.152ZM61.5111 263.78C58.8125 257.395 54.9688 250.488 49.7057 245.502C42.4537 238.632 35.3707 234.802 29.4032 232.688C29.2882 222.754 28.5091 201.048 28.2597 194.28C32.6529 191.954 37.6153 188.562 42.9156 183.627C47.7567 179.12 50.5383 173.274 52.1203 167.673L77.7543 167.161L77.7667 184.775L71.1834 184.461C69.2981 184.372 67.6118 185.625 67.1541 187.456C63.1108 203.628 66.9224 227.607 67.0867 228.62C67.3563 230.281 68.647 231.591 70.3037 231.884C70.5007 231.919 73.2076 232.397 77.154 232.976V265.979L61.5111 263.78ZM88.2705 226.413C82.7954 225.83 77.5848 225.049 74.5114 224.557C73.7333 218.512 72.2321 203.859 74.1786 192.532L107.666 194.127C107.199 202.057 106.257 219.472 106.525 226.72C105.599 226.937 103.817 227.192 100.566 227.192C97.7266 227.192 93.7652 226.998 88.2705 226.413ZM281.344 192.847C282.765 193.277 284.058 193.602 285.159 193.846C284.865 202.116 284.279 219.28 284.13 228.69C282.949 228.832 281.594 229.051 280.122 229.379C280.31 219.462 280.994 201.636 281.344 192.847ZM190.59 244.302C190.265 231.783 190.428 208.228 190.507 199.19C191.855 198.516 194.45 197.188 197.619 195.405C196.993 208.075 195.843 233.289 196.001 244.631C193.964 244.411 192.117 244.323 190.59 244.302ZM176.736 197.267C179.051 198.002 181.041 198.499 182.59 198.826C182.508 207.836 182.332 232.32 182.695 245.182C180.735 245.675 178.033 246.454 174.995 247.606C174.933 236.59 175.948 212.974 176.736 197.267ZM17.7949 230.239C17.0805 221.49 15.9951 205.885 15.5114 198.844C16.9406 198.591 18.5994 198.2 20.4557 197.605C20.7459 205.681 21.2923 221.531 21.453 230.647C20.0871 230.43 18.8596 230.305 17.7949 230.239ZM85.0732 267.092V234.023C86.1011 234.144 87.1503 234.26 88.2103 234.369C90.2268 234.576 92.0665 234.733 93.7585 234.851V268.313L85.0732 267.092ZM267.029 245.473C272.72 239.07 280.482 237.15 284.951 236.579C285.526 247.557 285.521 259.32 284.61 262.634C281.224 264.3 268.556 269.334 255.86 274.184C255.803 267.937 257.278 256.441 267.029 245.473ZM17.2081 268.014C16.4854 264.064 16.7586 250.577 17.4937 238.135C22.5654 238.464 32.9888 240.574 44.2592 251.251C51.4091 258.024 55.6385 269.701 57.6477 276.655C39.8194 273.537 21.7184 269.829 17.2081 268.014ZM191.078 252.242C196.852 252.391 207.279 253.636 213.142 260.232C223.902 272.337 224.588 282.635 224.276 286.966C214.342 289.351 201.783 292.354 195.223 293.897C194.353 279.042 192.135 260.57 191.078 252.242ZM148.29 292.225C148.925 287.173 151.522 276.791 161.867 265.151C167.902 258.363 177.569 254.837 183.07 253.286C183.999 263.067 186.168 285.822 187.151 295.386C187.049 295.387 186.946 295.387 186.84 295.387C179.85 295.387 163.674 293.977 148.29 292.225ZM230.787 275.474L248.021 271.005C247.886 273.282 247.932 275.243 248.039 276.788L232.036 281.978C231.837 280.042 231.455 277.857 230.787 275.474ZM66.2527 278.138C65.8836 276.632 65.3383 274.586 64.5928 272.21L142.277 283.13C141.284 286.262 140.75 288.964 140.472 291.07L66.2527 278.138Z" fill="#F3CF89" stroke="#18172A" stroke-width="4.43521" mask="url(#path-6-inside-1)"/>
<defs>
<filter id="filter0_d" x="27.6769" y="25.4608" width="246.025" height="136.139" filterUnits="userSpaceOnUse" color-interpolation-filters="sRGB">
<feFlood flood-opacity="0" result="BackgroundImageFix"/>
<feColorMatrix in="SourceAlpha" type="matrix" values="0 0 0 0 0 0 0 0 0 0 0 0 0 0 0 0 0 0 127 0" result="hardAlpha"/>
<feOffset/>
<feGaussianBlur stdDeviation="7.39202"/>
<feColorMatrix type="matrix" values="0 0 0 0 0.921569 0 0 0 0 0 0 0 0 0 1 0 0 0 1 0"/>
<feBlend mode="normal" in2="BackgroundImageFix" result="effect1_dropShadow"/>
<feBlend mode="normal" in="SourceGraphic" in2="effect1_dropShadow" result="shape"/>
</filter>
<filter id="filter1_d" x="83.1066" y="63.5893" width="130.964" height="94.4188" filterUnits="userSpaceOnUse" color-interpolation-filters="sRGB">
<feFlood flood-opacity="0" result="BackgroundImageFix"/>
<feColorMatrix in="SourceAlpha" type="matrix" values="0 0 0 0 0 0 0 0 0 0 0 0 0 0 0 0 0 0 127 0" result="hardAlpha"/>
<feOffset/>
<feGaussianBlur stdDeviation="7.39202"/>
<feColorMatrix type="matrix" values="0 0 0 0 0.921569 0 0 0 0 0 0 0 0 0 1 0 0 0 1 0"/>
<feBlend mode="normal" in2="BackgroundImageFix" result="effect1_dropShadow"/>
<feBlend mode="normal" in="SourceGraphic" in2="effect1_dropShadow" result="shape"/>
</filter>
<filter id="filter2_d" x="44.2804" y="41.4501" width="212.679" height="119.316" filterUnits="userSpaceOnUse" color-interpolation-filters="sRGB">
<feFlood flood-opacity="0" result="BackgroundImageFix"/>
<feColorMatrix in="SourceAlpha" type="matrix" values="0 0 0 0 0 0 0 0 0 0 0 0 0 0 0 0 0 0 127 0" result="hardAlpha"/>
<feOffset/>
<feGaussianBlur stdDeviation="7.39202"/>
<feColorMatrix type="matrix" values="0 0 0 0 0.921569 0 0 0 0 0 0 0 0 0 1 0 0 0 1 0"/>
<feBlend mode="normal" in2="BackgroundImageFix" result="effect1_dropShadow"/>
<feBlend mode="normal" in="SourceGraphic" in2="effect1_dropShadow" result="shape"/>
</filter>
<linearGradient id="paint0_linear" x1="-91.5112" y1="80.0465" x2="642.866" y2="285.325" gradientUnits="userSpaceOnUse">
<stop stop-color="#301402"/>
<stop offset="0.38324" stop-color="#FFE589"/>
<stop offset="1" stop-color="#1D0500"/>
</linearGradient>
</defs>
</svg>
