<svg width="188" height="84" viewBox="0 0 188 84" fill="none" xmlns="http://www.w3.org/2000/svg">
<g filter="url(#filter0_d)">
<path d="M21.3187 21.3763C21.3187 21.3763 13.1859 21.0249 11.6695 22.9224C11.6695 22.9224 9.87726 26.5066 9.8086 29.5987C9.8086 29.5987 9.18808 33.3236 11.6695 34.6583C11.6695 34.6583 13.4618 36.5557 18.562 36.4857C18.562 36.4857 23.6622 36.7671 25.7304 35.291C25.7304 35.291 27.4533 34.799 27.4533 31.5662C27.4533 31.5662 27.1088 24.6791 25.5238 22.9224C25.5231 22.9224 24.696 21.3063 21.3187 21.3763ZM22.7657 33.3229C21.1808 33.3229 19.1819 33.7443 19.1819 33.7443L18.2861 33.8849L17.3903 33.7443C15.8053 33.7443 15.1161 33.4629 15.1161 33.4629C13.3931 33.2523 12.8419 32.4789 12.8419 32.4789C11.119 29.7381 13.0485 26.3652 13.0485 26.3652C13.5311 24.4678 14.7715 24.5378 14.7715 24.5378C15.0474 24.0458 19.7337 23.9051 19.7337 23.9051C22.7664 23.7644 23.8002 25.4512 23.8002 25.4512C24.6273 26.4352 24.9719 31.9869 24.9719 31.9869C24.6273 33.1122 22.7657 33.3229 22.7657 33.3229ZM40.1346 42.3887C40.1346 42.3887 39.2387 31.4962 37.3778 27.7013C37.3778 27.7013 35.7928 22.501 32.0017 22.6417L31.5884 22.0797C31.5884 22.0797 29.4516 15.474 23.8688 13.9279C23.8688 13.9279 17.9415 10.9057 14.2196 13.1545C14.2196 13.1545 9.7393 14.8413 6.22473 27.4906C6.22473 27.4906 4.08788 36.1344 4.22584 42.7407C4.22584 42.7407 3.67463 53.3526 4.2945 61.3637L4.36316 64.4559C4.36316 64.4559 5.05234 66.072 6.56867 66.1426L6.8446 65.9319L14.7022 66.002C14.7022 66.002 15.8046 66.002 15.8739 65.0886V64.0345C15.8739 64.0345 16.0805 63.7532 15.9426 62.2071V61.083C15.9426 61.083 16.2185 57.4988 16.0805 54.688C16.0805 54.688 16.3565 53.3526 18.0101 53.1419C18.0101 53.1419 20.4916 52.7906 21.1114 53.4233C21.1114 53.4233 22.0073 53.7046 22.2832 55.0394L22.7657 62.8398C22.7657 62.8398 22.2832 65.2292 23.6615 65.5806C23.6615 65.5806 24.4194 66.7047 25.3845 65.7213L35.2403 65.7913C35.2403 65.7913 36.55 66.2833 36.6187 64.8072L36.3428 62.5584L35.5843 50.0491C35.5856 50.0485 40.1346 48.2917 40.1346 42.3887ZM33.518 62.5578L33.0355 62.7685L26.4876 62.8385C25.3158 62.6278 25.7297 61.2224 25.7297 61.2224L25.5918 58.3409C25.5231 55.7408 25.1785 54.124 25.1785 54.124L24.9719 52.0859C24.2827 49.2044 21.8706 49.6964 21.8706 49.6964C17.9421 49.1344 14.8401 50.8912 14.8401 50.8912C12.9099 52.0859 13.1859 54.686 13.1859 54.686C12.772 55.7401 13.1172 56.7242 13.1172 56.7242C12.4967 57.7782 13.0485 59.0429 13.0485 59.0429L12.9799 61.9244C12.9112 63.1192 11.8081 62.6971 11.8081 62.6971L7.67304 62.7671C6.43265 62.9078 6.70793 61.0804 6.70793 61.0804L6.77659 45.6196C6.91456 38.7325 8.36158 30.8615 8.36158 30.8615C9.53332 22.007 14.3582 16.5954 14.3582 16.5954C16.2878 13.9252 22.0085 16.4547 22.0085 16.4547C28.763 18.6335 29.8661 25.0985 29.8661 25.0985C31.2445 29.5961 32.6229 42.9488 32.6229 42.9488C32.8295 43.8622 33.5187 61.9938 33.5187 61.9938L33.518 62.5578ZM35.3789 46.3243C35.3789 46.3243 34.5058 34.8459 34.0006 32.1282C34.0006 32.1282 32.8975 26.459 32.5762 26.0845C32.5762 26.0845 32.9441 25.2881 33.6333 26.319C33.6333 26.319 36.2521 30.1139 36.9872 37.4229C36.9872 37.4229 37.4925 41.9205 37.4925 43.3259C37.4925 43.3259 36.528 47.3552 35.3789 46.3243Z" fill="#EB00FF"/>
</g>
<path d="M79.2044 31.7448L78.1694 32.8305L78.1746 32.8355L78.1799 32.8404L79.2044 31.7448ZM79.2044 15.3089L78.1588 14.2334L78.1538 14.2383L79.2044 15.3089ZM96.6164 15.183L97.7728 16.1383L98.7116 15.0019L97.5918 14.0434L96.6164 15.183ZM93.0269 19.5281L92.058 20.6732L93.2167 21.6536L94.1834 20.4834L93.0269 19.5281ZM83.707 19.2132L84.797 20.2438L84.8062 20.2339L83.707 19.2132ZM83.7385 27.935L82.6583 28.9759L82.6681 28.9859L83.7385 27.935ZM91.5786 28.7536L92.4173 29.9972L93.0786 29.5512V28.7536H91.5786ZM91.5786 26.0773H93.0786V24.5773H91.5786V26.0773ZM87.2649 26.0773H85.7649V27.5773H87.2649V26.0773ZM87.2649 21.6062V20.1062H85.7649V21.6062H87.2649ZM97.3721 21.6062H98.8721V20.1062H97.3721V21.6062ZM97.3721 31.4929L98.3358 32.6424L98.8721 32.1927V31.4929H97.3721ZM87.8002 33.4249C84.6694 33.4249 82.1851 32.4786 80.229 30.6492L78.1799 32.8404C80.7578 35.2512 84.004 36.4249 87.8002 36.4249V33.4249ZM80.2394 30.6591C78.3145 28.8241 77.3354 26.4887 77.3354 23.5269H74.3354C74.3354 27.2402 75.6023 30.3834 78.1694 32.8305L80.2394 30.6591ZM77.3354 23.5269V23.4639H74.3354V23.5269H77.3354ZM77.3354 23.4639C77.3354 20.6217 78.3051 18.293 80.255 16.3796L78.1538 14.2383C75.6117 16.733 74.3354 19.8409 74.3354 23.4639H77.3354ZM80.25 16.3844C82.2165 14.4726 84.6556 13.5029 87.6743 13.5029V10.5029C83.9339 10.5029 80.7264 11.7372 78.1588 14.2334L80.25 16.3844ZM87.6743 13.5029C90.8277 13.5029 93.4554 14.4518 95.641 16.3226L97.5918 14.0434C94.8235 11.674 91.4898 10.5029 87.6743 10.5029V13.5029ZM95.4599 14.2277L91.8705 18.5728L94.1834 20.4834L97.7728 16.1383L95.4599 14.2277ZM93.9959 18.383C92.1232 16.7985 90.0145 15.95 87.7057 15.95V18.95C89.2173 18.95 90.6561 19.487 92.058 20.6732L93.9959 18.383ZM87.7057 15.95C85.7054 15.95 83.977 16.718 82.6078 18.1926L84.8062 20.2339C85.62 19.3575 86.5574 18.95 87.7057 18.95V15.95ZM82.617 18.1827C81.2461 19.6327 80.5697 21.4254 80.5697 23.4639H83.5697C83.5697 22.1439 83.9848 21.1028 84.797 20.2438L82.617 18.1827ZM80.5697 23.4639V23.5269H83.5697V23.4639H80.5697ZM80.5697 23.5269C80.5697 25.6516 81.2451 27.5092 82.6583 28.9758L84.8186 26.8941C84.0068 26.0517 83.5697 24.9706 83.5697 23.5269H80.5697ZM82.6681 28.9859C84.1068 30.4512 85.9415 31.1667 88.0521 31.1667V28.1667C86.6782 28.1667 85.6371 27.7277 84.8088 26.8841L82.6681 28.9859ZM88.0521 31.1667C89.7024 31.1667 91.1971 30.8201 92.4173 29.9972L90.7399 27.51C90.1548 27.9046 89.2986 28.1667 88.0521 28.1667V31.1667ZM93.0786 28.7536V26.0773H90.0786V28.7536H93.0786ZM91.5786 24.5773H87.2649V27.5773H91.5786V24.5773ZM88.7649 26.0773V21.6062H85.7649V26.0773H88.7649ZM87.2649 23.1062H97.3721V20.1062H87.2649V23.1062ZM95.8721 21.6062V31.4929H98.8721V21.6062H95.8721ZM96.4083 30.3435C93.957 32.3988 91.11 33.4249 87.8002 33.4249V36.4249C91.7952 36.4249 95.3294 35.1631 98.3358 32.6424L96.4083 30.3435ZM102.735 33.4766L101.731 34.5915L101.743 34.602L101.755 34.6123L102.735 33.4766ZM102.955 25.5735L103.859 26.771L103.865 26.766L103.872 26.7609L102.955 25.5735ZM111.929 24.8493L111.385 26.2473L113.429 27.0421V24.8493H111.929ZM103.805 22.7082L102.366 23.1303L102.826 24.6996L104.35 24.1059L103.805 22.7082ZM102.577 18.5205L102.006 17.1335L100.758 17.6474L101.138 18.9426L102.577 18.5205ZM115.959 19.2762L114.898 20.3369L114.908 20.3461L115.959 19.2762ZM117.785 34.4841V35.9841H119.285V34.4841H117.785ZM111.897 34.4841H110.397V35.9841H111.897V34.4841ZM111.897 32.6894H113.397V28.9512L110.813 31.6526L111.897 32.6894ZM111.142 30.3594L110.145 29.2383L110.135 29.2477L110.124 29.2572L111.142 30.3594ZM111.992 27.5256H113.492V26.5101L112.549 26.1329L111.992 27.5256ZM107.584 27.6516L106.659 26.4703L106.646 26.4804L106.634 26.4907L107.584 27.6516ZM107.458 30.6113L106.461 31.7324L106.476 31.7458L106.492 31.7587L107.458 30.6113ZM106.86 33.362C105.469 33.362 104.464 32.9869 103.715 32.3408L101.755 34.6123C103.147 35.8134 104.891 36.362 106.86 36.362V33.362ZM103.738 32.3616C103.056 31.7479 102.661 30.8905 102.661 29.6037H99.6605C99.6605 31.5916 100.314 33.3161 101.731 34.5915L103.738 32.3616ZM102.661 29.6037V29.5408H99.6605V29.6037H102.661ZM102.661 29.5408C102.661 28.1825 103.102 27.3417 103.859 26.771L102.052 24.376C100.415 25.6105 99.6605 27.4146 99.6605 29.5408H102.661ZM103.872 26.7609C104.725 26.1021 105.992 25.6881 107.836 25.6881V22.6881C105.565 22.6881 103.578 23.1977 102.039 24.3861L103.872 26.7609ZM107.836 25.6881C109.3 25.6881 110.47 25.8913 111.385 26.2473L112.473 23.4513C111.121 22.9257 109.562 22.6881 107.836 22.6881V25.6881ZM113.429 24.8493V24.5659H110.429V24.8493H113.429ZM113.429 24.5659C113.429 23.3159 113.036 22.1331 112.033 21.3066C111.085 20.5259 109.83 20.2636 108.528 20.2636V23.2636C109.494 23.2636 109.939 23.4684 110.125 23.6218C110.255 23.7294 110.429 23.9478 110.429 24.5659H113.429ZM108.528 20.2636C106.787 20.2636 105.028 20.6221 103.261 21.3106L104.35 24.1059C105.815 23.5349 107.205 23.2636 108.528 23.2636V20.2636ZM105.245 22.2862L104.017 18.0985L101.138 18.9426L102.366 23.1303L105.245 22.2862ZM103.149 19.9076C105.098 19.105 107.201 18.6981 109.473 18.6981V15.6981C106.833 15.6981 104.339 16.1729 102.006 17.1335L103.149 19.9076ZM109.473 18.6981C112.21 18.6981 113.908 19.3465 114.898 20.3369L117.02 18.2156C115.239 16.4351 112.613 15.6981 109.473 15.6981V18.6981ZM114.908 20.3461C115.737 21.1608 116.285 22.5113 116.285 24.6919H119.285C119.285 22.0445 118.616 19.7846 117.01 18.2064L114.908 20.3461ZM116.285 24.6919V34.4841H119.285V24.6919H116.285ZM117.785 32.9841H111.897V35.9841H117.785V32.9841ZM113.397 34.4841V32.6894H110.397V34.4841H113.397ZM110.813 31.6526C109.706 32.8104 108.416 33.362 106.86 33.362V36.362C109.249 36.362 111.318 35.4652 112.981 33.7262L110.813 31.6526ZM109.001 32.6151C110.185 32.6151 111.286 32.2678 112.159 31.4616L110.124 29.2572C109.906 29.4586 109.58 29.6151 109.001 29.6151V32.6151ZM112.138 31.4805C113.07 30.6521 113.492 29.5377 113.492 28.3128H110.492C110.492 28.8091 110.347 29.0592 110.145 29.2383L112.138 31.4805ZM113.492 28.3128V27.5256H110.492V28.3128H113.492ZM112.549 26.1329C111.626 25.7639 110.649 25.5848 109.63 25.5848V28.5848C110.291 28.5848 110.888 28.6996 111.435 28.9184L112.549 26.1329ZM109.63 25.5848C108.556 25.5848 107.5 25.8126 106.659 26.4703L108.508 28.8328C108.633 28.7349 108.941 28.5848 109.63 28.5848V25.5848ZM106.634 26.4907C105.789 27.1815 105.391 28.1402 105.391 29.1944H108.391C108.391 28.9472 108.454 28.8773 108.534 28.8125L106.634 26.4907ZM105.391 29.1944V29.2574H108.391V29.1944H105.391ZM105.391 29.2574C105.391 30.1948 105.722 31.0756 106.461 31.7324L108.454 29.4902C108.428 29.4665 108.421 29.453 108.416 29.4417C108.41 29.4262 108.391 29.3731 108.391 29.2574H105.391ZM106.492 31.7587C107.214 32.3671 108.094 32.6151 109.001 32.6151V29.6151C108.648 29.6151 108.499 29.5272 108.424 29.4639L106.492 31.7587ZM122.087 34.4841H120.587V35.9841H122.087V34.4841ZM122.087 17.45V15.95H120.587V17.45H122.087ZM128.07 17.45H129.57V15.95H128.07V17.45ZM128.07 19.78H126.57V24.1461L129.253 20.7019L128.07 19.78ZM138.051 19.843L136.722 20.5379L137.751 22.5073L139.193 20.816L138.051 19.843ZM148.032 18.7095L146.94 19.7382L146.945 19.7435L146.95 19.7487L148.032 18.7095ZM149.575 34.4841V35.9841H151.075V34.4841H149.575ZM143.593 34.4841H142.093V35.9841H143.593V34.4841ZM142.963 23.1176L141.811 24.0778L141.821 24.0899L141.831 24.1018L142.963 23.1176ZM139.468 23.1176L138.362 22.104L138.36 22.1061L139.468 23.1176ZM138.807 34.4841V35.9841H140.307V34.4841H138.807ZM132.856 34.4841H131.356V35.9841H132.856V34.4841ZM132.226 23.1176L131.074 24.0778L131.084 24.0899L131.094 24.1018L132.226 23.1176ZM128.731 23.1176L129.839 24.129L129.849 24.1172L129.86 24.1053L128.731 23.1176ZM128.07 34.4841V35.9841H129.57V34.4841H128.07ZM123.587 34.4841V17.45H120.587V34.4841H123.587ZM122.087 18.95H128.07V15.95H122.087V18.95ZM126.57 17.45V19.78H129.57V17.45H126.57ZM129.253 20.7019C130.426 19.1957 131.706 18.5722 133.139 18.5722V15.5722C130.626 15.5722 128.526 16.7539 126.886 18.8581L129.253 20.7019ZM133.139 18.5722C134.094 18.5722 134.814 18.7623 135.362 19.0713C135.901 19.3755 136.358 19.8421 136.722 20.5379L139.38 19.1481C138.778 17.9966 137.934 17.0778 136.836 16.4584C135.746 15.8438 134.493 15.5722 133.139 15.5722V18.5722ZM139.193 20.816C140.511 19.2688 142.008 18.5722 143.75 18.5722V15.5722C141.042 15.5722 138.739 16.7227 136.909 18.87L139.193 20.816ZM143.75 18.5722C145.26 18.5722 146.255 19.0112 146.94 19.7382L149.124 17.6808C147.752 16.2246 145.893 15.5722 143.75 15.5722V18.5722ZM146.95 19.7487C147.629 20.455 148.075 21.5636 148.075 23.3065H151.075C151.075 21.0611 150.492 19.105 149.114 17.6702L146.95 19.7487ZM148.075 23.3065V34.4841H151.075V23.3065H148.075ZM149.575 32.9841H143.593V35.9841H149.575V32.9841ZM145.093 34.4841V25.2271H142.093V34.4841H145.093ZM145.093 25.2271C145.093 24.0995 144.838 22.9883 144.095 22.1333L141.831 24.1018C141.927 24.2124 142.093 24.5075 142.093 25.2271H145.093ZM144.115 22.1573C143.383 21.2786 142.377 20.8619 141.263 20.8619V23.8619C141.576 23.8619 141.703 23.9489 141.811 24.0778L144.115 22.1573ZM141.263 20.8619C140.143 20.8619 139.131 21.2651 138.362 22.104L140.574 24.1311C140.728 23.9625 140.913 23.8619 141.263 23.8619V20.8619ZM138.36 22.1061C137.579 22.9612 137.307 24.0834 137.307 25.2271H140.307C140.307 24.5237 140.475 24.2394 140.576 24.129L138.36 22.1061ZM137.307 25.2271V34.4841H140.307V25.2271H137.307ZM138.807 32.9841H132.856V35.9841H138.807V32.9841ZM134.356 34.4841V25.2271H131.356V34.4841H134.356ZM134.356 25.2271C134.356 24.0995 134.101 22.9883 133.358 22.1333L131.094 24.1018C131.19 24.2124 131.356 24.5075 131.356 25.2271H134.356ZM133.378 22.1573C132.637 21.2677 131.614 20.8619 130.494 20.8619V23.8619C130.844 23.8619 130.975 23.9598 131.074 24.0778L133.378 22.1573ZM130.494 20.8619C129.374 20.8619 128.358 21.2664 127.602 22.1298L129.86 24.1053C129.986 23.9611 130.145 23.8619 130.494 23.8619V20.8619ZM127.623 22.1061C126.843 22.9612 126.57 24.0834 126.57 25.2271H129.57C129.57 24.5237 129.738 24.2394 129.839 24.129L127.623 22.1061ZM126.57 25.2271V34.4841H129.57V25.2271H126.57ZM128.07 32.9841H122.087V35.9841H128.07V32.9841ZM155.8 32.4375L156.84 31.357L155.8 32.4375ZM155.674 19.6541L156.767 20.6809L155.674 19.6541ZM168.206 19.7485L167.041 20.6939L167.047 20.7014L167.053 20.7088L168.206 19.7485ZM170.378 27.6201V29.1201H171.767L171.874 27.7352L170.378 27.6201ZM158.98 27.6201V26.1201H157.064L157.524 27.9801L158.98 27.6201ZM166.442 28.6906L167.399 27.5356L166.348 26.6641L165.382 27.63L166.442 28.6906ZM169.748 31.43L170.935 32.3471L171.822 31.1999L170.705 30.2749L169.748 31.43ZM158.886 24.5659L157.408 24.3089L157.102 26.0659H158.886V24.5659ZM164.837 24.5659V26.0659H166.512L166.327 24.4003L164.837 24.5659ZM163.86 22.3304L162.76 23.3495L162.779 23.3707L162.8 23.3911L163.86 22.3304ZM159.893 22.2989L158.812 21.2592L158.801 21.2703L158.791 21.2815L159.893 22.2989ZM162.381 33.3935C160.024 33.3935 158.222 32.6874 156.84 31.357L154.759 33.518C156.778 35.4622 159.364 36.3935 162.381 36.3935V33.3935ZM156.84 31.357C155.468 30.0355 154.75 28.3121 154.75 26.0458H151.75C151.75 29.0272 152.731 31.565 154.759 33.518L156.84 31.357ZM154.75 26.0458V25.9828H151.75V26.0458H154.75ZM154.75 25.9828C154.75 23.8421 155.428 22.1068 156.767 20.6809L154.581 18.6273C152.687 20.6438 151.75 23.1277 151.75 25.9828H154.75ZM156.767 20.6809C158.082 19.2806 159.735 18.5722 161.845 18.5722V15.5722C158.96 15.5722 156.498 16.585 154.581 18.6273L156.767 20.6809ZM161.845 18.5722C164.292 18.5722 165.939 19.336 167.041 20.6939L169.37 18.8031C167.576 16.5925 164.982 15.5722 161.845 15.5722V18.5722ZM167.053 20.7088C168.262 22.1599 168.91 24.0175 168.91 26.3921H171.91C171.91 23.435 171.087 20.8636 169.358 18.7882L167.053 20.7088ZM168.91 26.3921C168.91 26.9293 168.899 27.2917 168.883 27.5051L171.874 27.7352C171.899 27.4028 171.91 26.9465 171.91 26.3921H168.91ZM170.378 26.1201H158.98V29.1201H170.378V26.1201ZM157.524 27.9801C157.816 29.1623 158.391 30.1943 159.339 30.9157C160.282 31.6327 161.435 31.9224 162.664 31.9224V28.9224C161.898 28.9224 161.441 28.745 161.156 28.528C160.876 28.3153 160.606 27.9461 160.436 27.2602L157.524 27.9801ZM162.664 31.9224C164.503 31.9224 166.126 31.1278 167.503 29.7513L165.382 27.63C164.449 28.5624 163.554 28.9224 162.664 28.9224V31.9224ZM165.485 29.8457L168.791 32.585L170.705 30.2749L167.399 27.5356L165.485 29.8457ZM168.561 30.5128C167.084 32.4247 165.082 33.3935 162.381 33.3935V36.3935C165.934 36.3935 168.844 35.0532 170.935 32.3471L168.561 30.5128ZM158.886 26.0659H164.837V23.0659H158.886V26.0659ZM166.327 24.4003C166.194 23.1977 165.759 22.108 164.921 21.2697L162.8 23.3911C163.053 23.6443 163.269 24.045 163.346 24.7316L166.327 24.4003ZM164.961 21.3113C164.134 20.4179 163.054 19.9803 161.845 19.9803V22.9803C162.274 22.9803 162.537 23.1094 162.76 23.3495L164.961 21.3113ZM161.845 19.9803C160.672 19.9803 159.628 20.4109 158.812 21.2592L160.974 23.3386C161.208 23.0954 161.465 22.9803 161.845 22.9803V19.9803ZM158.791 21.2815C158.038 22.0972 157.61 23.1481 157.408 24.3089L160.363 24.8229C160.497 24.0526 160.741 23.5922 160.995 23.3163L158.791 21.2815ZM174.265 34.4841H172.765V35.9841H174.265V34.4841ZM174.265 17.45V15.95H172.765V17.45H174.265ZM180.247 17.45H181.747V15.95H180.247V17.45ZM180.247 20.882H178.747L181.629 21.4661L180.247 20.882ZM185.632 17.1666H187.132V15.7283L185.695 15.668L185.632 17.1666ZM185.632 23.4639V24.9639H187.132V23.4639H185.632ZM180.247 34.4841V35.9841H181.747V34.4841H180.247ZM175.765 34.4841V17.45H172.765V34.4841H175.765ZM174.265 18.95H180.247V15.95H174.265V18.95ZM178.747 17.45V20.882H181.747V17.45H178.747ZM181.629 21.4661C182.095 20.3639 182.66 19.6682 183.264 19.2514C183.855 18.8436 184.595 18.6244 185.569 18.6653L185.695 15.668C184.17 15.6039 182.764 15.9514 181.56 16.7822C180.369 17.6038 179.491 18.8183 178.866 20.2979L181.629 21.4661ZM184.132 17.1666V23.4639H187.132V17.1666H184.132ZM185.632 21.9639H185.128V24.9639H185.632V21.9639ZM185.128 21.9639C183.204 21.9639 181.507 22.5365 180.328 23.913C179.187 25.245 178.747 27.084 178.747 29.1629H181.747C181.747 27.4425 182.121 26.432 182.607 25.8643C183.055 25.3412 183.798 24.9639 185.128 24.9639V21.9639ZM178.747 29.1629V34.4841H181.747V29.1629H178.747ZM180.247 32.9841H174.265V35.9841H180.247V32.9841ZM76.5596 72.4841H75.0596V73.9841H76.5596V72.4841ZM76.5596 50.4437V48.9437H75.0596V50.4437H76.5596ZM82.6679 50.4437H84.1679V48.9437H82.6679V50.4437ZM82.6679 67.1315H81.1679V68.6314H82.6679V67.1315ZM93.3418 67.1315H94.8418V65.6315H93.3418V67.1315ZM93.3418 72.4841V73.9841H94.8418V72.4841H93.3418ZM78.0596 72.4841V50.4437H75.0596V72.4841H78.0596ZM76.5596 51.9437H82.6679V48.9437H76.5596V51.9437ZM81.1679 50.4437V67.1315H84.1679V50.4437H81.1679ZM82.6679 68.6314H93.3418V65.6315H82.6679V68.6314ZM91.8418 67.1315V72.4841H94.8418V67.1315H91.8418ZM93.3418 70.9841H76.5596V73.9841H93.3418V70.9841ZM112.027 70.3116L113.062 71.3972L113.068 71.3909L112.027 70.3116ZM98.5818 70.3431L97.534 71.4164L97.5405 71.4227L97.547 71.429L98.5818 70.3431ZM98.6133 57.6855L99.6548 58.7651L99.655 58.7649L98.6133 57.6855ZM112.058 57.6541L113.099 56.5745L112.058 57.6541ZM107.933 66.7221L106.826 65.71L106.818 65.7187L106.81 65.7276L107.933 66.7221ZM107.902 61.2435L109.008 60.2299L107.902 61.2435ZM102.707 61.212L101.584 60.2175L102.707 61.212ZM102.77 66.6906L103.875 65.6771L102.77 66.6906ZM110.991 69.226C109.488 70.6595 107.622 71.3935 105.288 71.3935V74.3935C108.328 74.3935 110.955 73.4061 113.062 71.3972L110.991 69.226ZM105.288 71.3935C102.949 71.3935 101.096 70.6665 99.6166 69.2572L97.547 71.429C99.6365 73.4201 102.254 74.3935 105.288 74.3935V71.3935ZM99.6296 69.2697C98.1572 67.8324 97.437 66.121 97.437 64.0458H94.437C94.437 66.9244 95.4799 69.4112 97.534 71.4164L99.6296 69.2697ZM97.437 64.0458V63.9828H94.437V64.0458H97.437ZM97.437 63.9828C97.437 61.9135 98.1633 60.2039 99.6548 58.7651L97.5719 56.606C95.4949 58.6097 94.437 61.0983 94.437 63.9828H97.437ZM99.655 58.7649C101.159 57.3128 103.023 56.5722 105.351 56.5722V53.5722C102.306 53.5722 99.6776 54.5737 97.5716 56.6062L99.655 58.7649ZM105.351 56.5722C107.685 56.5722 109.537 57.3059 111.017 58.7336L113.099 56.5745C111.011 54.5597 108.391 53.5722 105.351 53.5722V56.5722ZM111.017 58.7336C112.511 60.1752 113.234 61.8754 113.234 63.9198H116.234C116.234 61.0524 115.174 58.5754 113.099 56.5745L111.017 58.7336ZM113.234 63.9198V63.9828H116.234V63.9198H113.234ZM113.234 63.9828C113.234 66.0468 112.501 67.7686 110.985 69.2323L113.068 71.3909C115.162 69.3701 116.234 66.8727 116.234 63.9828H113.234ZM105.351 69.3242C106.808 69.3242 108.093 68.8042 109.056 67.7167L106.81 65.7276C106.472 66.1094 106.036 66.3242 105.351 66.3242V69.3242ZM109.04 67.7343C109.979 66.7071 110.441 65.4476 110.441 64.0458H107.441C107.441 64.743 107.23 65.2678 106.826 65.71L109.04 67.7343ZM110.441 64.0458V63.9828H107.441V64.0458H110.441ZM110.441 63.9828C110.441 62.5553 109.966 61.2754 109.008 60.2299L106.796 62.2571C107.223 62.7229 107.441 63.2693 107.441 63.9828H110.441ZM109.008 60.2299C108.023 59.156 106.747 58.61 105.288 58.61V61.61C105.929 61.61 106.395 61.8196 106.796 62.2571L109.008 60.2299ZM105.288 58.61C103.832 58.61 102.547 59.13 101.584 60.2175L103.829 62.2066C104.168 61.8247 104.603 61.61 105.288 61.61V58.61ZM101.584 60.2175C100.667 61.2523 100.23 62.5188 100.23 63.9198H103.23C103.23 63.1798 103.445 62.6411 103.829 62.2066L101.584 60.2175ZM100.23 63.9198V63.9828H103.23V63.9198H100.23ZM100.23 63.9828C100.23 65.3978 100.711 66.6647 101.664 67.7042L103.875 65.6771C103.443 65.2052 103.23 64.667 103.23 63.9828H100.23ZM101.664 67.7042C102.642 68.771 103.904 69.3242 105.351 69.3242V66.3242C104.742 66.3242 104.283 66.1216 103.875 65.6771L101.664 67.7042ZM133.949 70.3116L134.984 71.3972L134.991 71.3909L133.949 70.3116ZM120.504 70.3431L119.456 71.4164L119.463 71.4227L119.469 71.429L120.504 70.3431ZM120.536 57.6855L121.577 58.7651L121.577 58.7649L120.536 57.6855ZM133.98 57.6541L135.022 56.5745L133.98 57.6541ZM129.856 66.7221L128.749 65.71L128.741 65.7187L128.733 65.7276L129.856 66.7221ZM129.824 61.2435L130.93 60.2299L129.824 61.2435ZM124.629 61.212L123.506 60.2175H123.506L124.629 61.212ZM124.692 66.6906L125.798 65.6771L124.692 66.6906ZM132.914 69.226C131.41 70.6595 129.545 71.3935 127.211 71.3935V74.3935C130.25 74.3935 132.877 73.4061 134.984 71.3972L132.914 69.226ZM127.211 71.3935C124.871 71.3935 123.018 70.6665 121.539 69.2572L119.469 71.429C121.559 73.4201 124.177 74.3935 127.211 74.3935V71.3935ZM121.552 69.2697C120.08 67.8324 119.359 66.121 119.359 64.0458H116.359C116.359 66.9244 117.402 69.4112 119.456 71.4164L121.552 69.2697ZM119.359 64.0458V63.9828H116.359V64.0458H119.359ZM119.359 63.9828C119.359 61.9135 120.086 60.2039 121.577 58.7651L119.494 56.606C117.417 58.6097 116.359 61.0983 116.359 63.9828H119.359ZM121.577 58.7649C123.082 57.3128 124.945 56.5722 127.274 56.5722V53.5722C124.229 53.5722 121.6 54.5737 119.494 56.6062L121.577 58.7649ZM127.274 56.5722C129.608 56.5722 131.459 57.3059 132.939 58.7336L135.022 56.5745C132.933 54.5597 130.313 53.5722 127.274 53.5722V56.5722ZM132.939 58.7336C134.433 60.1752 135.157 61.8754 135.157 63.9198H138.157C138.157 61.0524 137.096 58.5754 135.022 56.5745L132.939 58.7336ZM135.157 63.9198V63.9828H138.157V63.9198H135.157ZM135.157 63.9828C135.157 66.0468 134.424 67.7686 132.907 69.2323L134.991 71.3909C137.084 69.3701 138.157 66.8727 138.157 63.9828H135.157ZM127.274 69.3242C128.73 69.3242 130.015 68.8042 130.979 67.7167L128.733 65.7276C128.395 66.1094 127.959 66.3242 127.274 66.3242V69.3242ZM130.963 67.7343C131.902 66.7071 132.363 65.4476 132.363 64.0458H129.363C129.363 64.743 129.153 65.2678 128.749 65.71L130.963 67.7343ZM132.363 64.0458V63.9828H129.363V64.0458H132.363ZM132.363 63.9828C132.363 62.5553 131.888 61.2754 130.93 60.2299L128.718 62.2571C129.145 62.7229 129.363 63.2693 129.363 63.9828H132.363ZM130.93 60.2299C129.945 59.156 128.669 58.61 127.211 58.61V61.61C127.851 61.61 128.317 61.8196 128.718 62.2571L130.93 60.2299ZM127.211 58.61C125.755 58.61 124.469 59.13 123.506 60.2175L125.752 62.2066C126.09 61.8247 126.526 61.61 127.211 61.61V58.61ZM123.506 60.2175C122.59 61.2523 122.153 62.5188 122.153 63.9198H125.153C125.153 63.1798 125.367 62.6411 125.752 62.2066L123.506 60.2175ZM122.153 63.9198V63.9828H125.153V63.9198H122.153ZM122.153 63.9828C122.153 65.3978 122.633 66.6647 123.586 67.7042L125.798 65.6771C125.365 65.2052 125.153 64.667 125.153 63.9828H122.153ZM123.586 67.7042C124.564 68.771 125.826 69.3242 127.274 69.3242V66.3242C126.664 66.3242 126.205 66.1216 125.798 65.6771L123.586 67.7042ZM142.808 71.5081L141.784 72.6038L141.79 72.6098L141.797 72.6158L142.808 71.5081ZM141.36 60.2359H142.86V58.7359H141.36V60.2359ZM139.345 60.2359H137.845V61.7359H139.345V60.2359ZM139.345 55.45V53.95H137.845V55.45H139.345ZM141.36 55.45V56.95H142.86V55.45H141.36ZM141.36 51.1364V49.6364H139.86V51.1364H141.36ZM147.311 51.1364H148.811V49.6364H147.311V51.1364ZM147.311 55.45H145.811V56.95H147.311V55.45ZM151.278 55.45H152.778V53.95H151.278V55.45ZM151.278 60.2359V61.7359H152.778V60.2359H151.278ZM147.311 60.2359V58.7359H145.811V60.2359H147.311ZM151.215 67.1629H152.715V64.7926L150.573 65.8073L151.215 67.1629ZM151.215 71.8229L151.93 73.1415L152.715 72.7158V71.8229H151.215ZM147.059 71.3305C145.405 71.3305 144.41 70.9395 143.82 70.4003L141.797 72.6158C143.137 73.8399 144.976 74.3305 147.059 74.3305V71.3305ZM143.832 70.4123C143.293 69.9081 142.86 68.957 142.86 67.1944H139.86C139.86 69.3781 140.392 71.3028 141.784 72.6038L143.832 70.4123ZM142.86 67.1944V60.2359H139.86V67.1944H142.86ZM141.36 58.7359H139.345V61.7359H141.36V58.7359ZM140.845 60.2359V55.45H137.845V60.2359H140.845ZM139.345 56.95H141.36V53.95H139.345V56.95ZM142.86 55.45V51.1364H139.86V55.45H142.86ZM141.36 52.6364H147.311V49.6364H141.36V52.6364ZM145.811 51.1364V55.45H148.811V51.1364H145.811ZM147.311 56.95H151.278V53.95H147.311V56.95ZM149.778 55.45V60.2359H152.778V55.45H149.778ZM151.278 58.7359H147.311V61.7359H151.278V58.7359ZM145.811 60.2359V66.0294H148.811V60.2359H145.811ZM145.811 66.0294C145.811 66.8135 145.999 67.6796 146.64 68.3451C147.29 69.0211 148.156 69.2297 148.948 69.2297V66.2297C148.801 66.2297 148.734 66.2101 148.722 66.2059C148.718 66.2045 148.757 66.2187 148.8 66.2642C148.843 66.3084 148.849 66.3389 148.841 66.3148C148.831 66.2842 148.811 66.1971 148.811 66.0294H145.811ZM148.948 69.2297C149.93 69.2297 150.905 68.9695 151.857 68.5185L150.573 65.8073C149.929 66.1121 149.393 66.2297 148.948 66.2297V69.2297ZM149.715 67.1629V71.8229H152.715V67.1629H149.715ZM150.5 70.5044C149.5 71.0467 148.364 71.3305 147.059 71.3305V74.3305C148.818 74.3305 150.453 73.9425 151.93 73.1415L150.5 70.5044Z" fill="#F3CF89"/>
<g filter="url(#filter1_d)">
<line x1="57.7168" y1="72.9812" x2="57.7168" y2="11.494" stroke="#EB00FF" stroke-width="2" stroke-linecap="round"/>
</g>
<defs>
<filter id="filter0_d" x="0.167329" y="8.48984" width="43.7999" height="61.4855" filterUnits="userSpaceOnUse" color-interpolation-filters="sRGB">
<feFlood flood-opacity="0" result="BackgroundImageFix"/>
<feColorMatrix in="SourceAlpha" type="matrix" values="0 0 0 0 0 0 0 0 0 0 0 0 0 0 0 0 0 0 127 0" result="hardAlpha"/>
<feOffset/>
<feGaussianBlur stdDeviation="1.91634"/>
<feColorMatrix type="matrix" values="0 0 0 0 0.921569 0 0 0 0 0 0 0 0 0 1 0 0 0 1 0"/>
<feBlend mode="normal" in2="BackgroundImageFix" result="effect1_dropShadow"/>
<feBlend mode="normal" in="SourceGraphic" in2="effect1_dropShadow" result="shape"/>
</filter>
<filter id="filter1_d" x="47.7168" y="0.494141" width="22" height="83.4872" filterUnits="userSpaceOnUse" color-interpolation-filters="sRGB">
<feFlood flood-opacity="0" result="BackgroundImageFix"/>
<feColorMatrix in="SourceAlpha" type="matrix" values="0 0 0 0 0 0 0 0 0 0 0 0 0 0 0 0 0 0 127 0" result="hardAlpha"/>
<feOffset dx="1"/>
<feGaussianBlur stdDeviation="5"/>
<feColorMatrix type="matrix" values="0 0 0 0 0.921569 0 0 0 0 0 0 0 0 0 1 0 0 0 1 0"/>
<feBlend mode="normal" in2="BackgroundImageFix" result="effect1_dropShadow"/>
<feBlend mode="normal" in="SourceGraphic" in2="effect1_dropShadow" result="shape"/>
</filter>
</defs>
</svg>
